<?xml version="1.0" encoding="UTF-8" standalone="no"?>
<svg
   width="1816"
   height="501"
   viewBox="0 0 1816 501"
   fill="none"
   version="1.1"
   id="svg10"
   sodipodi:docname="finetuning_updated.svg"
   inkscape:version="1.4.2 (ebf0e940, 2025-05-08)"
   xmlns:inkscape="http://www.inkscape.org/namespaces/inkscape"
   xmlns:sodipodi="http://sodipodi.sourceforge.net/DTD/sodipodi-0.dtd"
   xmlns="http://www.w3.org/2000/svg"
   xmlns:svg="http://www.w3.org/2000/svg">
  <defs
     id="defs10" />
  <sodipodi:namedview
     id="namedview10"
     pagecolor="#ffffff"
     bordercolor="#000000"
     borderopacity="0.25"
     inkscape:showpageshadow="2"
     inkscape:pageopacity="0.0"
     inkscape:pagecheckerboard="0"
     inkscape:deskcolor="#d1d1d1"
     inkscape:zoom="0.54260239"
     inkscape:cx="945.44367"
     inkscape:cy="312.38344"
     inkscape:window-width="1440"
     inkscape:window-height="900"
     inkscape:window-x="0"
     inkscape:window-y="0"
     inkscape:window-maximized="0"
     inkscape:current-layer="svg10" />
  <rect
     width="1816"
     height="501"
     fill="white"
     id="rect1" />
  <rect
     y="3"
     width="380"
     height="495"
     rx="40"
     fill="#FFF6DF"
     id="rect2" />
  <path
     d="M105.651 239.5V213.26H113.131C115.104 213.26 116.824 213.5 118.291 213.98C119.757 214.46 120.904 215.273 121.731 216.42C122.557 217.54 122.971 219.06 122.971 220.98C122.971 223.727 122.077 225.767 120.291 227.1C118.504 228.433 116.171 229.1 113.291 229.1H108.971V239.5H105.651ZM108.971 226.38H112.891C115.184 226.38 116.877 225.953 117.971 225.1C119.091 224.22 119.651 222.847 119.651 220.98C119.651 219.087 119.064 217.78 117.891 217.06C116.744 216.313 115.024 215.94 112.731 215.94H108.971V226.38ZM127.987 239.5V220.06H130.707L130.987 223.58H131.107C131.774 222.353 132.587 221.38 133.547 220.66C134.507 219.94 135.534 219.58 136.627 219.58C137.4 219.58 138.094 219.713 138.707 219.98L138.067 222.86C137.747 222.753 137.454 222.673 137.187 222.62C136.92 222.567 136.587 222.54 136.187 222.54C135.36 222.54 134.494 222.873 133.587 223.54C132.707 224.207 131.934 225.367 131.267 227.02V239.5H127.987ZM149.344 239.98C147.61 239.98 146.037 239.58 144.624 238.78C143.21 237.953 142.09 236.78 141.264 235.26C140.437 233.74 140.024 231.927 140.024 229.82C140.024 227.687 140.437 225.86 141.264 224.34C142.117 222.82 143.21 221.647 144.544 220.82C145.877 219.993 147.277 219.58 148.744 219.58C151.224 219.58 153.13 220.407 154.464 222.06C155.824 223.713 156.504 225.927 156.504 228.7C156.504 229.047 156.49 229.393 156.464 229.74C156.464 230.06 156.437 230.34 156.384 230.58H143.264C143.397 232.633 144.037 234.273 145.184 235.5C146.357 236.727 147.877 237.34 149.744 237.34C150.677 237.34 151.53 237.207 152.304 236.94C153.104 236.647 153.864 236.273 154.584 235.82L155.744 237.98C154.917 238.513 153.97 238.98 152.904 239.38C151.864 239.78 150.677 239.98 149.344 239.98ZM143.224 228.22H153.624C153.624 226.247 153.197 224.753 152.344 223.74C151.517 222.7 150.344 222.18 148.824 222.18C147.464 222.18 146.237 222.713 145.144 223.78C144.077 224.82 143.437 226.3 143.224 228.22ZM167.037 239.98C164.957 239.98 163.503 239.38 162.677 238.18C161.877 236.98 161.477 235.42 161.477 233.5V222.74H158.597V220.26L161.637 220.06L162.037 214.62H164.797V220.06H170.037V222.74H164.797V233.54C164.797 234.74 165.01 235.673 165.437 236.34C165.89 236.98 166.677 237.3 167.797 237.3C168.143 237.3 168.517 237.247 168.917 237.14C169.317 237.007 169.677 236.887 169.997 236.78L170.637 239.26C170.103 239.447 169.517 239.607 168.877 239.74C168.263 239.9 167.65 239.98 167.037 239.98ZM174.432 239.5V220.06H177.152L177.432 223.58H177.552C178.219 222.353 179.032 221.38 179.992 220.66C180.952 219.94 181.979 219.58 183.072 219.58C183.846 219.58 184.539 219.713 185.152 219.98L184.512 222.86C184.192 222.753 183.899 222.673 183.632 222.62C183.366 222.567 183.032 222.54 182.632 222.54C181.806 222.54 180.939 222.873 180.032 223.54C179.152 224.207 178.379 225.367 177.712 227.02V239.5H174.432ZM191.803 239.98C190.176 239.98 188.816 239.5 187.723 238.54C186.656 237.553 186.123 236.193 186.123 234.46C186.123 232.327 187.07 230.7 188.963 229.58C190.883 228.433 193.91 227.633 198.043 227.18C198.043 226.353 197.923 225.567 197.683 224.82C197.47 224.073 197.07 223.473 196.483 223.02C195.923 222.54 195.11 222.3 194.043 222.3C192.923 222.3 191.87 222.513 190.883 222.94C189.896 223.367 189.016 223.847 188.243 224.38L186.963 222.1C187.87 221.513 188.976 220.953 190.283 220.42C191.616 219.86 193.056 219.58 194.603 219.58C196.976 219.58 198.696 220.313 199.763 221.78C200.83 223.22 201.363 225.153 201.363 227.58V239.5H198.643L198.363 237.18H198.243C197.336 237.927 196.336 238.58 195.243 239.14C194.176 239.7 193.03 239.98 191.803 239.98ZM192.763 237.34C193.696 237.34 194.576 237.113 195.403 236.66C196.23 236.207 197.11 235.567 198.043 234.74V229.34C194.816 229.74 192.55 230.34 191.243 231.14C189.963 231.94 189.323 232.967 189.323 234.22C189.323 235.313 189.656 236.113 190.323 236.62C190.99 237.1 191.803 237.34 192.763 237.34ZM207.479 239.5V220.06H210.759V239.5H207.479ZM209.159 216.06C208.519 216.06 207.986 215.873 207.559 215.5C207.159 215.1 206.959 214.567 206.959 213.9C206.959 213.26 207.159 212.74 207.559 212.34C207.986 211.94 208.519 211.74 209.159 211.74C209.799 211.74 210.319 211.94 210.719 212.34C211.146 212.74 211.359 213.26 211.359 213.9C211.359 214.567 211.146 215.1 210.719 215.5C210.319 215.873 209.799 216.06 209.159 216.06ZM217.323 239.5V220.06H220.043L220.323 222.86H220.443C221.376 221.927 222.363 221.153 223.403 220.54C224.443 219.9 225.63 219.58 226.963 219.58C229.016 219.58 230.51 220.233 231.443 221.54C232.403 222.82 232.883 224.7 232.883 227.18V239.5H229.603V227.62C229.603 225.807 229.31 224.487 228.723 223.66C228.136 222.833 227.203 222.42 225.923 222.42C224.936 222.42 224.043 222.673 223.243 223.18C222.47 223.687 221.59 224.433 220.603 225.42V239.5H217.323ZM247.078 239.98C245.345 239.98 243.771 239.58 242.358 238.78C240.945 237.953 239.825 236.78 238.998 235.26C238.171 233.74 237.758 231.927 237.758 229.82C237.758 227.687 238.171 225.86 238.998 224.34C239.851 222.82 240.945 221.647 242.278 220.82C243.611 219.993 245.011 219.58 246.478 219.58C248.958 219.58 250.865 220.407 252.198 222.06C253.558 223.713 254.238 225.927 254.238 228.7C254.238 229.047 254.225 229.393 254.198 229.74C254.198 230.06 254.171 230.34 254.118 230.58H240.998C241.131 232.633 241.771 234.273 242.918 235.5C244.091 236.727 245.611 237.34 247.478 237.34C248.411 237.34 249.265 237.207 250.038 236.94C250.838 236.647 251.598 236.273 252.318 235.82L253.478 237.98C252.651 238.513 251.705 238.98 250.638 239.38C249.598 239.78 248.411 239.98 247.078 239.98ZM240.958 228.22H251.358C251.358 226.247 250.931 224.753 250.078 223.74C249.251 222.7 248.078 222.18 246.558 222.18C245.198 222.18 243.971 222.713 242.878 223.78C241.811 224.82 241.171 226.3 240.958 228.22ZM265.682 239.98C263.255 239.98 261.308 239.1 259.842 237.34C258.375 235.553 257.642 233.047 257.642 229.82C257.642 227.713 258.028 225.9 258.802 224.38C259.602 222.833 260.642 221.647 261.922 220.82C263.228 219.993 264.615 219.58 266.082 219.58C267.202 219.58 268.175 219.78 269.002 220.18C269.828 220.58 270.668 221.127 271.522 221.82L271.362 218.5V211.02H274.682V239.5H271.962L271.682 237.22H271.562C270.815 237.967 269.935 238.62 268.922 239.18C267.908 239.713 266.828 239.98 265.682 239.98ZM266.402 237.22C268.108 237.22 269.762 236.327 271.362 234.54V224.38C270.535 223.633 269.735 223.113 268.962 222.82C268.215 222.5 267.442 222.34 266.642 222.34C265.602 222.34 264.655 222.66 263.802 223.3C262.975 223.913 262.308 224.78 261.802 225.9C261.295 226.993 261.042 228.287 261.042 229.78C261.042 232.1 261.508 233.927 262.442 235.26C263.375 236.567 264.695 237.22 266.402 237.22ZM62.3459 289.98C61.1193 289.98 60.2259 289.607 59.6659 288.86C59.1326 288.087 58.8659 286.993 58.8659 285.58V261.02H62.1459V285.82C62.1459 286.327 62.2393 286.7 62.4259 286.94C62.6126 287.153 62.8259 287.26 63.0659 287.26C63.1726 287.26 63.2659 287.26 63.3459 287.26C63.4526 287.233 63.5993 287.207 63.7859 287.18L64.2259 289.66C64.0126 289.767 63.7593 289.847 63.4659 289.9C63.1726 289.953 62.7993 289.98 62.3459 289.98ZM73.5413 289.98C71.9146 289.98 70.5546 289.5 69.4613 288.54C68.3946 287.553 67.8613 286.193 67.8613 284.46C67.8613 282.327 68.8079 280.7 70.7013 279.58C72.6213 278.433 75.6479 277.633 79.7813 277.18C79.7813 276.353 79.6613 275.567 79.4213 274.82C79.2079 274.073 78.8079 273.473 78.2213 273.02C77.6613 272.54 76.8479 272.3 75.7812 272.3C74.6613 272.3 73.6079 272.513 72.6213 272.94C71.6346 273.367 70.7546 273.847 69.9813 274.38L68.7013 272.1C69.6079 271.513 70.7146 270.953 72.0213 270.42C73.3546 269.86 74.7946 269.58 76.3412 269.58C78.7146 269.58 80.4346 270.313 81.5013 271.78C82.5679 273.22 83.1013 275.153 83.1013 277.58V289.5H80.3813L80.1013 287.18H79.9813C79.0746 287.927 78.0746 288.58 76.9813 289.14C75.9146 289.7 74.7679 289.98 73.5413 289.98ZM74.5013 287.34C75.4346 287.34 76.3146 287.113 77.1413 286.66C77.9679 286.207 78.8479 285.567 79.7813 284.74V279.34C76.5546 279.74 74.2879 280.34 72.9813 281.14C71.7013 281.94 71.0612 282.967 71.0612 284.22C71.0612 285.313 71.3946 286.113 72.0613 286.62C72.7279 287.1 73.5413 287.34 74.5013 287.34ZM89.2175 289.5V270.06H91.9375L92.2175 272.86H92.3375C93.2708 271.927 94.2575 271.153 95.2975 270.54C96.3375 269.9 97.5242 269.58 98.8575 269.58C100.911 269.58 102.404 270.233 103.338 271.54C104.298 272.82 104.778 274.7 104.778 277.18V289.5H101.498V277.62C101.498 275.807 101.204 274.487 100.618 273.66C100.031 272.833 99.0975 272.42 97.8175 272.42C96.8308 272.42 95.9375 272.673 95.1375 273.18C94.3642 273.687 93.4842 274.433 92.4975 275.42V289.5H89.2175ZM117.653 298.46C115.279 298.46 113.346 298.007 111.853 297.1C110.359 296.193 109.613 294.9 109.613 293.22C109.613 292.393 109.866 291.593 110.373 290.82C110.879 290.073 111.573 289.407 112.453 288.82V288.66C111.973 288.367 111.559 287.953 111.213 287.42C110.893 286.887 110.733 286.247 110.733 285.5C110.733 284.673 110.959 283.953 111.413 283.34C111.866 282.727 112.346 282.247 112.853 281.9V281.74C112.213 281.207 111.626 280.487 111.093 279.58C110.586 278.673 110.333 277.647 110.333 276.5C110.333 275.087 110.666 273.86 111.333 272.82C111.999 271.78 112.893 270.98 114.013 270.42C115.133 269.86 116.346 269.58 117.653 269.58C118.186 269.58 118.693 269.633 119.173 269.74C119.653 269.82 120.066 269.927 120.413 270.06H127.173V272.58H123.173C123.626 273.007 123.999 273.58 124.293 274.3C124.613 274.993 124.773 275.753 124.773 276.58C124.773 277.967 124.453 279.167 123.813 280.18C123.173 281.193 122.319 281.98 121.253 282.54C120.186 283.073 118.986 283.34 117.653 283.34C116.613 283.34 115.639 283.113 114.733 282.66C114.386 282.953 114.093 283.287 113.853 283.66C113.613 284.007 113.493 284.447 113.493 284.98C113.493 285.593 113.733 286.1 114.213 286.5C114.719 286.9 115.626 287.1 116.933 287.1H120.693C122.959 287.1 124.653 287.473 125.773 288.22C126.919 288.94 127.493 290.113 127.493 291.74C127.493 292.94 127.093 294.047 126.293 295.06C125.493 296.073 124.359 296.887 122.893 297.5C121.426 298.14 119.679 298.46 117.653 298.46ZM117.653 281.14C118.773 281.14 119.733 280.727 120.533 279.9C121.359 279.047 121.773 277.913 121.773 276.5C121.773 275.087 121.373 273.98 120.573 273.18C119.773 272.38 118.799 271.98 117.653 271.98C116.506 271.98 115.533 272.38 114.733 273.18C113.933 273.98 113.533 275.087 113.533 276.5C113.533 277.913 113.933 279.047 114.733 279.9C115.559 280.727 116.533 281.14 117.653 281.14ZM118.133 296.18C119.999 296.18 121.493 295.767 122.613 294.94C123.733 294.14 124.293 293.233 124.293 292.22C124.293 291.313 123.946 290.687 123.253 290.34C122.586 289.993 121.626 289.82 120.373 289.82H117.013C116.639 289.82 116.226 289.793 115.773 289.74C115.346 289.687 114.919 289.607 114.493 289.5C113.799 290.007 113.293 290.54 112.973 291.1C112.653 291.66 112.493 292.22 112.493 292.78C112.493 293.82 112.986 294.647 113.973 295.26C114.986 295.873 116.373 296.18 118.133 296.18ZM136.929 289.98C134.875 289.98 133.369 289.34 132.409 288.06C131.449 286.753 130.969 284.86 130.969 282.38V270.06H134.289V281.94C134.289 283.753 134.569 285.073 135.129 285.9C135.715 286.727 136.649 287.14 137.929 287.14C138.942 287.14 139.835 286.887 140.609 286.38C141.409 285.847 142.262 285.007 143.169 283.86V270.06H146.449V289.5H143.729L143.449 286.46H143.329C142.422 287.527 141.462 288.38 140.449 289.02C139.435 289.66 138.262 289.98 136.929 289.98ZM157.487 289.98C155.86 289.98 154.5 289.5 153.407 288.54C152.34 287.553 151.807 286.193 151.807 284.46C151.807 282.327 152.753 280.7 154.647 279.58C156.567 278.433 159.593 277.633 163.727 277.18C163.727 276.353 163.607 275.567 163.367 274.82C163.153 274.073 162.753 273.473 162.167 273.02C161.607 272.54 160.793 272.3 159.727 272.3C158.607 272.3 157.553 272.513 156.567 272.94C155.58 273.367 154.7 273.847 153.927 274.38L152.647 272.1C153.553 271.513 154.66 270.953 155.967 270.42C157.3 269.86 158.74 269.58 160.287 269.58C162.66 269.58 164.38 270.313 165.447 271.78C166.513 273.22 167.047 275.153 167.047 277.58V289.5H164.327L164.047 287.18H163.927C163.02 287.927 162.02 288.58 160.927 289.14C159.86 289.7 158.713 289.98 157.487 289.98ZM158.447 287.34C159.38 287.34 160.26 287.113 161.087 286.66C161.913 286.207 162.793 285.567 163.727 284.74V279.34C160.5 279.74 158.233 280.34 156.927 281.14C155.647 281.94 155.007 282.967 155.007 284.22C155.007 285.313 155.34 286.113 156.007 286.62C156.673 287.1 157.487 287.34 158.447 287.34ZM179.723 298.46C177.349 298.46 175.416 298.007 173.923 297.1C172.429 296.193 171.683 294.9 171.683 293.22C171.683 292.393 171.936 291.593 172.443 290.82C172.949 290.073 173.643 289.407 174.523 288.82V288.66C174.043 288.367 173.629 287.953 173.283 287.42C172.963 286.887 172.803 286.247 172.803 285.5C172.803 284.673 173.029 283.953 173.483 283.34C173.936 282.727 174.416 282.247 174.923 281.9V281.74C174.283 281.207 173.696 280.487 173.163 279.58C172.656 278.673 172.403 277.647 172.403 276.5C172.403 275.087 172.736 273.86 173.403 272.82C174.069 271.78 174.963 270.98 176.083 270.42C177.203 269.86 178.416 269.58 179.723 269.58C180.256 269.58 180.763 269.633 181.243 269.74C181.723 269.82 182.136 269.927 182.483 270.06H189.243V272.58H185.243C185.696 273.007 186.069 273.58 186.363 274.3C186.683 274.993 186.843 275.753 186.843 276.58C186.843 277.967 186.523 279.167 185.883 280.18C185.243 281.193 184.389 281.98 183.323 282.54C182.256 283.073 181.056 283.34 179.723 283.34C178.683 283.34 177.709 283.113 176.803 282.66C176.456 282.953 176.163 283.287 175.923 283.66C175.683 284.007 175.563 284.447 175.563 284.98C175.563 285.593 175.803 286.1 176.283 286.5C176.789 286.9 177.696 287.1 179.003 287.1H182.763C185.029 287.1 186.723 287.473 187.843 288.22C188.989 288.94 189.563 290.113 189.563 291.74C189.563 292.94 189.163 294.047 188.363 295.06C187.563 296.073 186.429 296.887 184.963 297.5C183.496 298.14 181.749 298.46 179.723 298.46ZM179.723 281.14C180.843 281.14 181.803 280.727 182.603 279.9C183.429 279.047 183.843 277.913 183.843 276.5C183.843 275.087 183.443 273.98 182.643 273.18C181.843 272.38 180.869 271.98 179.723 271.98C178.576 271.98 177.603 272.38 176.803 273.18C176.003 273.98 175.603 275.087 175.603 276.5C175.603 277.913 176.003 279.047 176.803 279.9C177.629 280.727 178.603 281.14 179.723 281.14ZM180.203 296.18C182.069 296.18 183.563 295.767 184.683 294.94C185.803 294.14 186.363 293.233 186.363 292.22C186.363 291.313 186.016 290.687 185.323 290.34C184.656 289.993 183.696 289.82 182.443 289.82H179.083C178.709 289.82 178.296 289.793 177.843 289.74C177.416 289.687 176.989 289.607 176.563 289.5C175.869 290.007 175.363 290.54 175.043 291.1C174.723 291.66 174.563 292.22 174.563 292.78C174.563 293.82 175.056 294.647 176.043 295.26C177.056 295.873 178.443 296.18 180.203 296.18ZM200.652 289.98C198.919 289.98 197.346 289.58 195.932 288.78C194.519 287.953 193.399 286.78 192.572 285.26C191.746 283.74 191.332 281.927 191.332 279.82C191.332 277.687 191.746 275.86 192.572 274.34C193.426 272.82 194.519 271.647 195.852 270.82C197.186 269.993 198.586 269.58 200.052 269.58C202.532 269.58 204.439 270.407 205.772 272.06C207.132 273.713 207.812 275.927 207.812 278.7C207.812 279.047 207.799 279.393 207.772 279.74C207.772 280.06 207.746 280.34 207.692 280.58H194.572C194.706 282.633 195.346 284.273 196.492 285.5C197.666 286.727 199.186 287.34 201.052 287.34C201.986 287.34 202.839 287.207 203.612 286.94C204.412 286.647 205.172 286.273 205.892 285.82L207.052 287.98C206.226 288.513 205.279 288.98 204.212 289.38C203.172 289.78 201.986 289.98 200.652 289.98ZM194.532 278.22H204.932C204.932 276.247 204.506 274.753 203.652 273.74C202.826 272.7 201.652 272.18 200.132 272.18C198.772 272.18 197.546 272.713 196.452 273.78C195.386 274.82 194.746 276.3 194.532 278.22ZM220.624 289.5V270.06H223.344L223.624 272.86H223.744C224.597 271.927 225.53 271.153 226.544 270.54C227.557 269.9 228.637 269.58 229.784 269.58C231.277 269.58 232.437 269.913 233.264 270.58C234.117 271.22 234.744 272.127 235.144 273.3C236.157 272.207 237.184 271.313 238.224 270.62C239.264 269.927 240.37 269.58 241.544 269.58C243.544 269.58 245.024 270.233 245.984 271.54C246.97 272.82 247.464 274.7 247.464 277.18V289.5H244.184V277.62C244.184 275.807 243.89 274.487 243.304 273.66C242.717 272.833 241.81 272.42 240.584 272.42C239.144 272.42 237.517 273.42 235.704 275.42V289.5H232.424V277.62C232.424 275.807 232.13 274.487 231.544 273.66C230.957 272.833 230.037 272.42 228.784 272.42C227.344 272.42 225.717 273.42 223.904 275.42V289.5H220.624ZM261.348 289.98C259.774 289.98 258.294 289.58 256.908 288.78C255.548 287.98 254.441 286.82 253.588 285.3C252.761 283.78 252.348 281.953 252.348 279.82C252.348 277.633 252.761 275.78 253.588 274.26C254.441 272.74 255.548 271.58 256.908 270.78C258.294 269.98 259.774 269.58 261.348 269.58C262.948 269.58 264.428 269.98 265.788 270.78C267.148 271.58 268.241 272.74 269.068 274.26C269.921 275.78 270.348 277.633 270.348 279.82C270.348 281.953 269.921 283.78 269.068 285.3C268.241 286.82 267.148 287.98 265.788 288.78C264.428 289.58 262.948 289.98 261.348 289.98ZM261.348 287.26C263.028 287.26 264.374 286.58 265.388 285.22C266.428 283.833 266.948 282.033 266.948 279.82C266.948 277.58 266.428 275.767 265.388 274.38C264.374 272.993 263.028 272.3 261.348 272.3C259.694 272.3 258.348 272.993 257.308 274.38C256.268 275.767 255.748 277.58 255.748 279.82C255.748 282.033 256.268 283.833 257.308 285.22C258.348 286.58 259.694 287.26 261.348 287.26ZM282.108 289.98C279.681 289.98 277.734 289.1 276.268 287.34C274.801 285.553 274.068 283.047 274.068 279.82C274.068 277.713 274.454 275.9 275.228 274.38C276.028 272.833 277.068 271.647 278.348 270.82C279.654 269.993 281.041 269.58 282.508 269.58C283.628 269.58 284.601 269.78 285.428 270.18C286.254 270.58 287.094 271.127 287.948 271.82L287.788 268.5V261.02H291.108V289.5H288.388L288.108 287.22H287.988C287.241 287.967 286.361 288.62 285.348 289.18C284.334 289.713 283.254 289.98 282.108 289.98ZM282.828 287.22C284.534 287.22 286.188 286.327 287.788 284.54V274.38C286.961 273.633 286.161 273.113 285.388 272.82C284.641 272.5 283.868 272.34 283.068 272.34C282.028 272.34 281.081 272.66 280.228 273.3C279.401 273.913 278.734 274.78 278.228 275.9C277.721 276.993 277.467 278.287 277.467 279.78C277.467 282.1 277.934 283.927 278.868 285.26C279.801 286.567 281.121 287.22 282.828 287.22ZM305.535 289.98C303.802 289.98 302.228 289.58 300.815 288.78C299.402 287.953 298.282 286.78 297.455 285.26C296.628 283.74 296.215 281.927 296.215 279.82C296.215 277.687 296.628 275.86 297.455 274.34C298.308 272.82 299.402 271.647 300.735 270.82C302.068 269.993 303.468 269.58 304.935 269.58C307.415 269.58 309.322 270.407 310.655 272.06C312.015 273.713 312.695 275.927 312.695 278.7C312.695 279.047 312.682 279.393 312.655 279.74C312.655 280.06 312.628 280.34 312.575 280.58H299.455C299.588 282.633 300.228 284.273 301.375 285.5C302.548 286.727 304.068 287.34 305.935 287.34C306.868 287.34 307.722 287.207 308.495 286.94C309.295 286.647 310.055 286.273 310.775 285.82L311.935 287.98C311.108 288.513 310.162 288.98 309.095 289.38C308.055 289.78 306.868 289.98 305.535 289.98ZM299.415 278.22H309.815C309.815 276.247 309.388 274.753 308.535 273.74C307.708 272.7 306.535 272.18 305.015 272.18C303.655 272.18 302.428 272.713 301.335 273.78C300.268 274.82 299.628 276.3 299.415 278.22ZM320.979 289.98C319.752 289.98 318.859 289.607 318.299 288.86C317.765 288.087 317.499 286.993 317.499 285.58V261.02H320.779V285.82C320.779 286.327 320.872 286.7 321.059 286.94C321.245 287.153 321.459 287.26 321.699 287.26C321.805 287.26 321.899 287.26 321.979 287.26C322.085 287.233 322.232 287.207 322.419 287.18L322.859 289.66C322.645 289.767 322.392 289.847 322.099 289.9C321.805 289.953 321.432 289.98 320.979 289.98Z"
     fill="black"
     id="path2" />
  <rect
     x="1435"
     y="3"
     width="380"
     height="495"
     rx="40"
     fill="#F6F3FF"
     id="rect3" />
  <path
     d="M1537.47 239.5V213.26H1552.59V216.06H1540.79V224.94H1550.79V227.74H1540.79V239.5H1537.47ZM1556.91 239.5V220.06H1560.19V239.5H1556.91ZM1558.59 216.06C1557.95 216.06 1557.42 215.873 1556.99 215.5C1556.59 215.1 1556.39 214.567 1556.39 213.9C1556.39 213.26 1556.59 212.74 1556.99 212.34C1557.42 211.94 1557.95 211.74 1558.59 211.74C1559.23 211.74 1559.75 211.94 1560.15 212.34C1560.58 212.74 1560.79 213.26 1560.79 213.9C1560.79 214.567 1560.58 215.1 1560.15 215.5C1559.75 215.873 1559.23 216.06 1558.59 216.06ZM1566.76 239.5V220.06H1569.48L1569.76 222.86H1569.88C1570.81 221.927 1571.8 221.153 1572.84 220.54C1573.88 219.9 1575.06 219.58 1576.4 219.58C1578.45 219.58 1579.94 220.233 1580.88 221.54C1581.84 222.82 1582.32 224.7 1582.32 227.18V239.5H1579.04V227.62C1579.04 225.807 1578.74 224.487 1578.16 223.66C1577.57 222.833 1576.64 222.42 1575.36 222.42C1574.37 222.42 1573.48 222.673 1572.68 223.18C1571.9 223.687 1571.02 224.433 1570.04 225.42V239.5H1566.76ZM1596.51 239.98C1594.78 239.98 1593.2 239.58 1591.79 238.78C1590.38 237.953 1589.26 236.78 1588.43 235.26C1587.6 233.74 1587.19 231.927 1587.19 229.82C1587.19 227.687 1587.6 225.86 1588.43 224.34C1589.28 222.82 1590.38 221.647 1591.71 220.82C1593.04 219.993 1594.44 219.58 1595.91 219.58C1598.39 219.58 1600.3 220.407 1601.63 222.06C1602.99 223.713 1603.67 225.927 1603.67 228.7C1603.67 229.047 1603.66 229.393 1603.63 229.74C1603.63 230.06 1603.6 230.34 1603.55 230.58H1590.43C1590.56 232.633 1591.2 234.273 1592.35 235.5C1593.52 236.727 1595.04 237.34 1596.91 237.34C1597.84 237.34 1598.7 237.207 1599.47 236.94C1600.27 236.647 1601.03 236.273 1601.75 235.82L1602.91 237.98C1602.08 238.513 1601.14 238.98 1600.07 239.38C1599.03 239.78 1597.84 239.98 1596.51 239.98ZM1590.39 228.22H1600.79C1600.79 226.247 1600.36 224.753 1599.51 223.74C1598.68 222.7 1597.51 222.18 1595.99 222.18C1594.63 222.18 1593.4 222.713 1592.31 223.78C1591.24 224.82 1590.6 226.3 1590.39 228.22ZM1607.23 230.74V228.22H1616.43V230.74H1607.23ZM1626.35 239.98C1624.27 239.98 1622.82 239.38 1621.99 238.18C1621.19 236.98 1620.79 235.42 1620.79 233.5V222.74H1617.91V220.26L1620.95 220.06L1621.35 214.62H1624.11V220.06H1629.35V222.74H1624.11V233.54C1624.11 234.74 1624.33 235.673 1624.75 236.34C1625.21 236.98 1625.99 237.3 1627.11 237.3C1627.46 237.3 1627.83 237.247 1628.23 237.14C1628.63 237.007 1628.99 236.887 1629.31 236.78L1629.95 239.26C1629.42 239.447 1628.83 239.607 1628.19 239.74C1627.58 239.9 1626.97 239.98 1626.35 239.98ZM1639.43 239.98C1637.38 239.98 1635.87 239.34 1634.91 238.06C1633.95 236.753 1633.47 234.86 1633.47 232.38V220.06H1636.79V231.94C1636.79 233.753 1637.07 235.073 1637.63 235.9C1638.22 236.727 1639.15 237.14 1640.43 237.14C1641.44 237.14 1642.34 236.887 1643.11 236.38C1643.91 235.847 1644.76 235.007 1645.67 233.86V220.06H1648.95V239.5H1646.23L1645.95 236.46H1645.83C1644.92 237.527 1643.96 238.38 1642.95 239.02C1641.94 239.66 1640.76 239.98 1639.43 239.98ZM1655.51 239.5V220.06H1658.23L1658.51 222.86H1658.63C1659.56 221.927 1660.55 221.153 1661.59 220.54C1662.63 219.9 1663.81 219.58 1665.15 219.58C1667.2 219.58 1668.69 220.233 1669.63 221.54C1670.59 222.82 1671.07 224.7 1671.07 227.18V239.5H1667.79V227.62C1667.79 225.807 1667.49 224.487 1666.91 223.66C1666.32 222.833 1665.39 222.42 1664.11 222.42C1663.12 222.42 1662.23 222.673 1661.43 223.18C1660.65 223.687 1659.77 224.433 1658.79 225.42V239.5H1655.51ZM1685.26 239.98C1683.53 239.98 1681.95 239.58 1680.54 238.78C1679.13 237.953 1678.01 236.78 1677.18 235.26C1676.35 233.74 1675.94 231.927 1675.94 229.82C1675.94 227.687 1676.35 225.86 1677.18 224.34C1678.03 222.82 1679.13 221.647 1680.46 220.82C1681.79 219.993 1683.19 219.58 1684.66 219.58C1687.14 219.58 1689.05 220.407 1690.38 222.06C1691.74 223.713 1692.42 225.927 1692.42 228.7C1692.42 229.047 1692.41 229.393 1692.38 229.74C1692.38 230.06 1692.35 230.34 1692.3 230.58H1679.18C1679.31 232.633 1679.95 234.273 1681.1 235.5C1682.27 236.727 1683.79 237.34 1685.66 237.34C1686.59 237.34 1687.45 237.207 1688.22 236.94C1689.02 236.647 1689.78 236.273 1690.5 235.82L1691.66 237.98C1690.83 238.513 1689.89 238.98 1688.82 239.38C1687.78 239.78 1686.59 239.98 1685.26 239.98ZM1679.14 228.22H1689.54C1689.54 226.247 1689.11 224.753 1688.26 223.74C1687.43 222.7 1686.26 222.18 1684.74 222.18C1683.38 222.18 1682.15 222.713 1681.06 223.78C1679.99 224.82 1679.35 226.3 1679.14 228.22ZM1703.87 239.98C1701.44 239.98 1699.49 239.1 1698.03 237.34C1696.56 235.553 1695.83 233.047 1695.83 229.82C1695.83 227.713 1696.21 225.9 1696.99 224.38C1697.79 222.833 1698.83 221.647 1700.11 220.82C1701.41 219.993 1702.8 219.58 1704.27 219.58C1705.39 219.58 1706.36 219.78 1707.19 220.18C1708.01 220.58 1708.85 221.127 1709.71 221.82L1709.55 218.5V211.02H1712.87V239.5H1710.15L1709.87 237.22H1709.75C1709 237.967 1708.12 238.62 1707.11 239.18C1706.09 239.713 1705.01 239.98 1703.87 239.98ZM1704.59 237.22C1706.29 237.22 1707.95 236.327 1709.55 234.54V224.38C1708.72 223.633 1707.92 223.113 1707.15 222.82C1706.4 222.5 1705.63 222.34 1704.83 222.34C1703.79 222.34 1702.84 222.66 1701.99 223.3C1701.16 223.913 1700.49 224.78 1699.99 225.9C1699.48 226.993 1699.23 228.287 1699.23 229.78C1699.23 232.1 1699.69 233.927 1700.63 235.26C1701.56 236.567 1702.88 237.22 1704.59 237.22ZM1497.35 289.98C1496.12 289.98 1495.23 289.607 1494.67 288.86C1494.13 288.087 1493.87 286.993 1493.87 285.58V261.02H1497.15V285.82C1497.15 286.327 1497.24 286.7 1497.43 286.94C1497.61 287.153 1497.83 287.26 1498.07 287.26C1498.17 287.26 1498.27 287.26 1498.35 287.26C1498.45 287.233 1498.6 287.207 1498.79 287.18L1499.23 289.66C1499.01 289.767 1498.76 289.847 1498.47 289.9C1498.17 289.953 1497.8 289.98 1497.35 289.98ZM1508.54 289.98C1506.91 289.98 1505.55 289.5 1504.46 288.54C1503.39 287.553 1502.86 286.193 1502.86 284.46C1502.86 282.327 1503.81 280.7 1505.7 279.58C1507.62 278.433 1510.65 277.633 1514.78 277.18C1514.78 276.353 1514.66 275.567 1514.42 274.82C1514.21 274.073 1513.81 273.473 1513.22 273.02C1512.66 272.54 1511.85 272.3 1510.78 272.3C1509.66 272.3 1508.61 272.513 1507.62 272.94C1506.63 273.367 1505.75 273.847 1504.98 274.38L1503.7 272.1C1504.61 271.513 1505.71 270.953 1507.02 270.42C1508.35 269.86 1509.79 269.58 1511.34 269.58C1513.71 269.58 1515.43 270.313 1516.5 271.78C1517.57 273.22 1518.1 275.153 1518.1 277.58V289.5H1515.38L1515.1 287.18H1514.98C1514.07 287.927 1513.07 288.58 1511.98 289.14C1510.91 289.7 1509.77 289.98 1508.54 289.98ZM1509.5 287.34C1510.43 287.34 1511.31 287.113 1512.14 286.66C1512.97 286.207 1513.85 285.567 1514.78 284.74V279.34C1511.55 279.74 1509.29 280.34 1507.98 281.14C1506.7 281.94 1506.06 282.967 1506.06 284.22C1506.06 285.313 1506.39 286.113 1507.06 286.62C1507.73 287.1 1508.54 287.34 1509.5 287.34ZM1524.22 289.5V270.06H1526.94L1527.22 272.86H1527.34C1528.27 271.927 1529.26 271.153 1530.3 270.54C1531.34 269.9 1532.52 269.58 1533.86 269.58C1535.91 269.58 1537.4 270.233 1538.34 271.54C1539.3 272.82 1539.78 274.7 1539.78 277.18V289.5H1536.5V277.62C1536.5 275.807 1536.2 274.487 1535.62 273.66C1535.03 272.833 1534.1 272.42 1532.82 272.42C1531.83 272.42 1530.94 272.673 1530.14 273.18C1529.36 273.687 1528.48 274.433 1527.5 275.42V289.5H1524.22ZM1552.65 298.46C1550.28 298.46 1548.35 298.007 1546.85 297.1C1545.36 296.193 1544.61 294.9 1544.61 293.22C1544.61 292.393 1544.87 291.593 1545.37 290.82C1545.88 290.073 1546.57 289.407 1547.45 288.82V288.66C1546.97 288.367 1546.56 287.953 1546.21 287.42C1545.89 286.887 1545.73 286.247 1545.73 285.5C1545.73 284.673 1545.96 283.953 1546.41 283.34C1546.87 282.727 1547.35 282.247 1547.85 281.9V281.74C1547.21 281.207 1546.63 280.487 1546.09 279.58C1545.59 278.673 1545.33 277.647 1545.33 276.5C1545.33 275.087 1545.67 273.86 1546.33 272.82C1547 271.78 1547.89 270.98 1549.01 270.42C1550.13 269.86 1551.35 269.58 1552.65 269.58C1553.19 269.58 1553.69 269.633 1554.17 269.74C1554.65 269.82 1555.07 269.927 1555.41 270.06H1562.17V272.58H1558.17C1558.63 273.007 1559 273.58 1559.29 274.3C1559.61 274.993 1559.77 275.753 1559.77 276.58C1559.77 277.967 1559.45 279.167 1558.81 280.18C1558.17 281.193 1557.32 281.98 1556.25 282.54C1555.19 283.073 1553.99 283.34 1552.65 283.34C1551.61 283.34 1550.64 283.113 1549.73 282.66C1549.39 282.953 1549.09 283.287 1548.85 283.66C1548.61 284.007 1548.49 284.447 1548.49 284.98C1548.49 285.593 1548.73 286.1 1549.21 286.5C1549.72 286.9 1550.63 287.1 1551.93 287.1H1555.69C1557.96 287.1 1559.65 287.473 1560.77 288.22C1561.92 288.94 1562.49 290.113 1562.49 291.74C1562.49 292.94 1562.09 294.047 1561.29 295.06C1560.49 296.073 1559.36 296.887 1557.89 297.5C1556.43 298.14 1554.68 298.46 1552.65 298.46ZM1552.65 281.14C1553.77 281.14 1554.73 280.727 1555.53 279.9C1556.36 279.047 1556.77 277.913 1556.77 276.5C1556.77 275.087 1556.37 273.98 1555.57 273.18C1554.77 272.38 1553.8 271.98 1552.65 271.98C1551.51 271.98 1550.53 272.38 1549.73 273.18C1548.93 273.98 1548.53 275.087 1548.53 276.5C1548.53 277.913 1548.93 279.047 1549.73 279.9C1550.56 280.727 1551.53 281.14 1552.65 281.14ZM1553.13 296.18C1555 296.18 1556.49 295.767 1557.61 294.94C1558.73 294.14 1559.29 293.233 1559.29 292.22C1559.29 291.313 1558.95 290.687 1558.25 290.34C1557.59 289.993 1556.63 289.82 1555.37 289.82H1552.01C1551.64 289.82 1551.23 289.793 1550.77 289.74C1550.35 289.687 1549.92 289.607 1549.49 289.5C1548.8 290.007 1548.29 290.54 1547.97 291.1C1547.65 291.66 1547.49 292.22 1547.49 292.78C1547.49 293.82 1547.99 294.647 1548.97 295.26C1549.99 295.873 1551.37 296.18 1553.13 296.18ZM1571.93 289.98C1569.88 289.98 1568.37 289.34 1567.41 288.06C1566.45 286.753 1565.97 284.86 1565.97 282.38V270.06H1569.29V281.94C1569.29 283.753 1569.57 285.073 1570.13 285.9C1570.72 286.727 1571.65 287.14 1572.93 287.14C1573.94 287.14 1574.84 286.887 1575.61 286.38C1576.41 285.847 1577.26 285.007 1578.17 283.86V270.06H1581.45V289.5H1578.73L1578.45 286.46H1578.33C1577.42 287.527 1576.46 288.38 1575.45 289.02C1574.44 289.66 1573.26 289.98 1571.93 289.98ZM1592.49 289.98C1590.86 289.98 1589.5 289.5 1588.41 288.54C1587.34 287.553 1586.81 286.193 1586.81 284.46C1586.81 282.327 1587.75 280.7 1589.65 279.58C1591.57 278.433 1594.59 277.633 1598.73 277.18C1598.73 276.353 1598.61 275.567 1598.37 274.82C1598.15 274.073 1597.75 273.473 1597.17 273.02C1596.61 272.54 1595.79 272.3 1594.73 272.3C1593.61 272.3 1592.55 272.513 1591.57 272.94C1590.58 273.367 1589.7 273.847 1588.93 274.38L1587.65 272.1C1588.55 271.513 1589.66 270.953 1590.97 270.42C1592.3 269.86 1593.74 269.58 1595.29 269.58C1597.66 269.58 1599.38 270.313 1600.45 271.78C1601.51 273.22 1602.05 275.153 1602.05 277.58V289.5H1599.33L1599.05 287.18H1598.93C1598.02 287.927 1597.02 288.58 1595.93 289.14C1594.86 289.7 1593.71 289.98 1592.49 289.98ZM1593.45 287.34C1594.38 287.34 1595.26 287.113 1596.09 286.66C1596.91 286.207 1597.79 285.567 1598.73 284.74V279.34C1595.5 279.74 1593.23 280.34 1591.93 281.14C1590.65 281.94 1590.01 282.967 1590.01 284.22C1590.01 285.313 1590.34 286.113 1591.01 286.62C1591.67 287.1 1592.49 287.34 1593.45 287.34ZM1614.72 298.46C1612.35 298.46 1610.42 298.007 1608.92 297.1C1607.43 296.193 1606.68 294.9 1606.68 293.22C1606.68 292.393 1606.94 291.593 1607.44 290.82C1607.95 290.073 1608.64 289.407 1609.52 288.82V288.66C1609.04 288.367 1608.63 287.953 1608.28 287.42C1607.96 286.887 1607.8 286.247 1607.8 285.5C1607.8 284.673 1608.03 283.953 1608.48 283.34C1608.94 282.727 1609.42 282.247 1609.92 281.9V281.74C1609.28 281.207 1608.7 280.487 1608.16 279.58C1607.66 278.673 1607.4 277.647 1607.4 276.5C1607.4 275.087 1607.74 273.86 1608.4 272.82C1609.07 271.78 1609.96 270.98 1611.08 270.42C1612.2 269.86 1613.42 269.58 1614.72 269.58C1615.26 269.58 1615.76 269.633 1616.24 269.74C1616.72 269.82 1617.14 269.927 1617.48 270.06H1624.24V272.58H1620.24C1620.7 273.007 1621.07 273.58 1621.36 274.3C1621.68 274.993 1621.84 275.753 1621.84 276.58C1621.84 277.967 1621.52 279.167 1620.88 280.18C1620.24 281.193 1619.39 281.98 1618.32 282.54C1617.26 283.073 1616.06 283.34 1614.72 283.34C1613.68 283.34 1612.71 283.113 1611.8 282.66C1611.46 282.953 1611.16 283.287 1610.92 283.66C1610.68 284.007 1610.56 284.447 1610.56 284.98C1610.56 285.593 1610.8 286.1 1611.28 286.5C1611.79 286.9 1612.7 287.1 1614 287.1H1617.76C1620.03 287.1 1621.72 287.473 1622.84 288.22C1623.99 288.94 1624.56 290.113 1624.56 291.74C1624.56 292.94 1624.16 294.047 1623.36 295.06C1622.56 296.073 1621.43 296.887 1619.96 297.5C1618.5 298.14 1616.75 298.46 1614.72 298.46ZM1614.72 281.14C1615.84 281.14 1616.8 280.727 1617.6 279.9C1618.43 279.047 1618.84 277.913 1618.84 276.5C1618.84 275.087 1618.44 273.98 1617.64 273.18C1616.84 272.38 1615.87 271.98 1614.72 271.98C1613.58 271.98 1612.6 272.38 1611.8 273.18C1611 273.98 1610.6 275.087 1610.6 276.5C1610.6 277.913 1611 279.047 1611.8 279.9C1612.63 280.727 1613.6 281.14 1614.72 281.14ZM1615.2 296.18C1617.07 296.18 1618.56 295.767 1619.68 294.94C1620.8 294.14 1621.36 293.233 1621.36 292.22C1621.36 291.313 1621.02 290.687 1620.32 290.34C1619.66 289.993 1618.7 289.82 1617.44 289.82H1614.08C1613.71 289.82 1613.3 289.793 1612.84 289.74C1612.42 289.687 1611.99 289.607 1611.56 289.5C1610.87 290.007 1610.36 290.54 1610.04 291.1C1609.72 291.66 1609.56 292.22 1609.56 292.78C1609.56 293.82 1610.06 294.647 1611.04 295.26C1612.06 295.873 1613.44 296.18 1615.2 296.18ZM1635.65 289.98C1633.92 289.98 1632.35 289.58 1630.93 288.78C1629.52 287.953 1628.4 286.78 1627.57 285.26C1626.75 283.74 1626.33 281.927 1626.33 279.82C1626.33 277.687 1626.75 275.86 1627.57 274.34C1628.43 272.82 1629.52 271.647 1630.85 270.82C1632.19 269.993 1633.59 269.58 1635.05 269.58C1637.53 269.58 1639.44 270.407 1640.77 272.06C1642.13 273.713 1642.81 275.927 1642.81 278.7C1642.81 279.047 1642.8 279.393 1642.77 279.74C1642.77 280.06 1642.75 280.34 1642.69 280.58H1629.57C1629.71 282.633 1630.35 284.273 1631.49 285.5C1632.67 286.727 1634.19 287.34 1636.05 287.34C1636.99 287.34 1637.84 287.207 1638.61 286.94C1639.41 286.647 1640.17 286.273 1640.89 285.82L1642.05 287.98C1641.23 288.513 1640.28 288.98 1639.21 289.38C1638.17 289.78 1636.99 289.98 1635.65 289.98ZM1629.53 278.22H1639.93C1639.93 276.247 1639.51 274.753 1638.65 273.74C1637.83 272.7 1636.65 272.18 1635.13 272.18C1633.77 272.18 1632.55 272.713 1631.45 273.78C1630.39 274.82 1629.75 276.3 1629.53 278.22ZM1655.62 289.5V270.06H1658.34L1658.62 272.86H1658.74C1659.6 271.927 1660.53 271.153 1661.54 270.54C1662.56 269.9 1663.64 269.58 1664.78 269.58C1666.28 269.58 1667.44 269.913 1668.26 270.58C1669.12 271.22 1669.74 272.127 1670.14 273.3C1671.16 272.207 1672.18 271.313 1673.22 270.62C1674.26 269.927 1675.37 269.58 1676.54 269.58C1678.54 269.58 1680.02 270.233 1680.98 271.54C1681.97 272.82 1682.46 274.7 1682.46 277.18V289.5H1679.18V277.62C1679.18 275.807 1678.89 274.487 1678.3 273.66C1677.72 272.833 1676.81 272.42 1675.58 272.42C1674.14 272.42 1672.52 273.42 1670.7 275.42V289.5H1667.42V277.62C1667.42 275.807 1667.13 274.487 1666.54 273.66C1665.96 272.833 1665.04 272.42 1663.78 272.42C1662.34 272.42 1660.72 273.42 1658.9 275.42V289.5H1655.62ZM1696.35 289.98C1694.77 289.98 1693.29 289.58 1691.91 288.78C1690.55 287.98 1689.44 286.82 1688.59 285.3C1687.76 283.78 1687.35 281.953 1687.35 279.82C1687.35 277.633 1687.76 275.78 1688.59 274.26C1689.44 272.74 1690.55 271.58 1691.91 270.78C1693.29 269.98 1694.77 269.58 1696.35 269.58C1697.95 269.58 1699.43 269.98 1700.79 270.78C1702.15 271.58 1703.24 272.74 1704.07 274.26C1704.92 275.78 1705.35 277.633 1705.35 279.82C1705.35 281.953 1704.92 283.78 1704.07 285.3C1703.24 286.82 1702.15 287.98 1700.79 288.78C1699.43 289.58 1697.95 289.98 1696.35 289.98ZM1696.35 287.26C1698.03 287.26 1699.37 286.58 1700.39 285.22C1701.43 283.833 1701.95 282.033 1701.95 279.82C1701.95 277.58 1701.43 275.767 1700.39 274.38C1699.37 272.993 1698.03 272.3 1696.35 272.3C1694.69 272.3 1693.35 272.993 1692.31 274.38C1691.27 275.767 1690.75 277.58 1690.75 279.82C1690.75 282.033 1691.27 283.833 1692.31 285.22C1693.35 286.58 1694.69 287.26 1696.35 287.26ZM1717.11 289.98C1714.68 289.98 1712.73 289.1 1711.27 287.34C1709.8 285.553 1709.07 283.047 1709.07 279.82C1709.07 277.713 1709.45 275.9 1710.23 274.38C1711.03 272.833 1712.07 271.647 1713.35 270.82C1714.65 269.993 1716.04 269.58 1717.51 269.58C1718.63 269.58 1719.6 269.78 1720.43 270.18C1721.25 270.58 1722.09 271.127 1722.95 271.82L1722.79 268.5V261.02H1726.11V289.5H1723.39L1723.11 287.22H1722.99C1722.24 287.967 1721.36 288.62 1720.35 289.18C1719.33 289.713 1718.25 289.98 1717.11 289.98ZM1717.83 287.22C1719.53 287.22 1721.19 286.327 1722.79 284.54V274.38C1721.96 273.633 1721.16 273.113 1720.39 272.82C1719.64 272.5 1718.87 272.34 1718.07 272.34C1717.03 272.34 1716.08 272.66 1715.23 273.3C1714.4 273.913 1713.73 274.78 1713.23 275.9C1712.72 276.993 1712.47 278.287 1712.47 279.78C1712.47 282.1 1712.93 283.927 1713.87 285.26C1714.8 286.567 1716.12 287.22 1717.83 287.22ZM1740.54 289.98C1738.8 289.98 1737.23 289.58 1735.82 288.78C1734.4 287.953 1733.28 286.78 1732.46 285.26C1731.63 283.74 1731.22 281.927 1731.22 279.82C1731.22 277.687 1731.63 275.86 1732.46 274.34C1733.31 272.82 1734.4 271.647 1735.74 270.82C1737.07 269.993 1738.47 269.58 1739.93 269.58C1742.42 269.58 1744.32 270.407 1745.66 272.06C1747.02 273.713 1747.7 275.927 1747.7 278.7C1747.7 279.047 1747.68 279.393 1747.66 279.74C1747.66 280.06 1747.63 280.34 1747.58 280.58H1734.46C1734.59 282.633 1735.23 284.273 1736.38 285.5C1737.55 286.727 1739.07 287.34 1740.94 287.34C1741.87 287.34 1742.72 287.207 1743.5 286.94C1744.3 286.647 1745.06 286.273 1745.78 285.82L1746.94 287.98C1746.11 288.513 1745.16 288.98 1744.1 289.38C1743.06 289.78 1741.87 289.98 1740.54 289.98ZM1734.42 278.22H1744.82C1744.82 276.247 1744.39 274.753 1743.54 273.74C1742.71 272.7 1741.54 272.18 1740.02 272.18C1738.66 272.18 1737.43 272.713 1736.34 273.78C1735.27 274.82 1734.63 276.3 1734.42 278.22ZM1755.98 289.98C1754.75 289.98 1753.86 289.607 1753.3 288.86C1752.77 288.087 1752.5 286.993 1752.5 285.58V261.02H1755.78V285.82C1755.78 286.327 1755.87 286.7 1756.06 286.94C1756.25 287.153 1756.46 287.26 1756.7 287.26C1756.81 287.26 1756.9 287.26 1756.98 287.26C1757.09 287.233 1757.23 287.207 1757.42 287.18L1757.86 289.66C1757.65 289.767 1757.39 289.847 1757.1 289.9C1756.81 289.953 1756.43 289.98 1755.98 289.98Z"
     fill="black"
     id="path3" />
  <path
     d="M1436.06 251.061C1436.65 250.475 1436.65 249.525 1436.06 248.939L1426.51 239.393C1425.93 238.808 1424.98 238.808 1424.39 239.393C1423.81 239.979 1423.81 240.929 1424.39 241.515L1432.88 250L1424.39 258.485C1423.81 259.071 1423.81 260.021 1424.39 260.607C1424.98 261.192 1425.93 261.192 1426.51 260.607L1436.06 251.061ZM380 251.5L1435 251.5L1435 248.5L380 248.5L380 251.5Z"
     fill="#B4B4B4"
     id="path4" />
  <rect
     x="762.5"
     y="3.5"
     width="289"
     height="85"
     rx="11.5"
     fill="#FFF3EB"
     id="rect4" />
  <path
     d="M805.592 62.24V58.874C804.504 58.7607 803.45 58.466 802.43 57.99C801.41 57.4913 800.537 56.9133 799.812 56.256L801.104 54.318C801.829 54.9527 802.623 55.4967 803.484 55.95C804.368 56.3807 805.331 56.596 806.374 56.596C807.643 56.596 808.584 56.2787 809.196 55.644C809.831 54.9867 810.148 54.1367 810.148 53.094C810.148 52.1647 809.921 51.4053 809.468 50.816C809.015 50.2267 808.425 49.7167 807.7 49.286C806.975 48.8553 806.204 48.4473 805.388 48.062C804.595 47.654 803.835 47.212 803.11 46.736C802.385 46.2373 801.795 45.6253 801.342 44.9C800.889 44.1747 800.662 43.2567 800.662 42.146C800.662 40.6273 801.115 39.3693 802.022 38.372C802.929 37.352 804.119 36.7287 805.592 36.502V33.068H807.632V36.434C808.72 36.5473 809.638 36.842 810.386 37.318C811.157 37.794 811.848 38.3607 812.46 39.018L810.964 40.684C810.329 40.072 809.706 39.596 809.094 39.256C808.505 38.916 807.745 38.746 806.816 38.746C805.773 38.746 804.946 39.0407 804.334 39.63C803.722 40.2193 803.416 41.0127 803.416 42.01C803.416 42.826 803.643 43.506 804.096 44.05C804.549 44.5713 805.139 45.0247 805.864 45.41C806.589 45.7953 807.349 46.1807 808.142 46.566C808.958 46.9513 809.729 47.4047 810.454 47.926C811.179 48.4247 811.769 49.0707 812.222 49.864C812.675 50.6573 812.902 51.666 812.902 52.89C812.902 54.4993 812.426 55.8367 811.474 56.902C810.522 57.9447 809.241 58.5793 807.632 58.806V62.24H805.592ZM822.492 62.24V58.874C821.404 58.7607 820.35 58.466 819.33 57.99C818.31 57.4913 817.438 56.9133 816.712 56.256L818.004 54.318C818.73 54.9527 819.523 55.4967 820.384 55.95C821.268 56.3807 822.232 56.596 823.274 56.596C824.544 56.596 825.484 56.2787 826.096 55.644C826.731 54.9867 827.048 54.1367 827.048 53.094C827.048 52.1647 826.822 51.4053 826.368 50.816C825.915 50.2267 825.326 49.7167 824.6 49.286C823.875 48.8553 823.104 48.4473 822.288 48.062C821.495 47.654 820.736 47.212 820.01 46.736C819.285 46.2373 818.696 45.6253 818.242 44.9C817.789 44.1747 817.562 43.2567 817.562 42.146C817.562 40.6273 818.016 39.3693 818.922 38.372C819.829 37.352 821.019 36.7287 822.492 36.502V33.068H824.532V36.434C825.62 36.5473 826.538 36.842 827.286 37.318C828.057 37.794 828.748 38.3607 829.36 39.018L827.864 40.684C827.23 40.072 826.606 39.596 825.994 39.256C825.405 38.916 824.646 38.746 823.716 38.746C822.674 38.746 821.846 39.0407 821.234 39.63C820.622 40.2193 820.316 41.0127 820.316 42.01C820.316 42.826 820.543 43.506 820.996 44.05C821.45 44.5713 822.039 45.0247 822.764 45.41C823.49 45.7953 824.249 46.1807 825.042 46.566C825.858 46.9513 826.629 47.4047 827.354 47.926C828.08 48.4247 828.669 49.0707 829.122 49.864C829.576 50.6573 829.802 51.666 829.802 52.89C829.802 54.4993 829.326 55.8367 828.374 56.902C827.422 57.9447 826.142 58.5793 824.532 58.806V62.24H822.492ZM839.393 62.24V58.874C838.305 58.7607 837.251 58.466 836.231 57.99C835.211 57.4913 834.338 56.9133 833.613 56.256L834.905 54.318C835.63 54.9527 836.423 55.4967 837.285 55.95C838.169 56.3807 839.132 56.596 840.175 56.596C841.444 56.596 842.385 56.2787 842.997 55.644C843.631 54.9867 843.949 54.1367 843.949 53.094C843.949 52.1647 843.722 51.4053 843.269 50.816C842.815 50.2267 842.226 49.7167 841.501 49.286C840.775 48.8553 840.005 48.4473 839.189 48.062C838.395 47.654 837.636 47.212 836.911 46.736C836.185 46.2373 835.596 45.6253 835.143 44.9C834.689 44.1747 834.463 43.2567 834.463 42.146C834.463 40.6273 834.916 39.3693 835.823 38.372C836.729 37.352 837.919 36.7287 839.393 36.502V33.068H841.433V36.434C842.521 36.5473 843.439 36.842 844.187 37.318C844.957 37.794 845.649 38.3607 846.261 39.018L844.765 40.684C844.13 40.072 843.507 39.596 842.895 39.256C842.305 38.916 841.546 38.746 840.617 38.746C839.574 38.746 838.747 39.0407 838.135 39.63C837.523 40.2193 837.217 41.0127 837.217 42.01C837.217 42.826 837.443 43.506 837.897 44.05C838.35 44.5713 838.939 45.0247 839.665 45.41C840.39 45.7953 841.149 46.1807 841.943 46.566C842.759 46.9513 843.529 47.4047 844.255 47.926C844.98 48.4247 845.569 49.0707 846.023 49.864C846.476 50.6573 846.703 51.666 846.703 52.89C846.703 54.4993 846.227 55.8367 845.275 56.902C844.323 57.9447 843.042 58.5793 841.433 58.806V62.24H839.393ZM858.34 58.5V41.976H861.128V58.5H858.34ZM859.768 38.576C859.224 38.576 858.77 38.4173 858.408 38.1C858.068 37.76 857.898 37.3067 857.898 36.74C857.898 36.196 858.068 35.754 858.408 35.414C858.77 35.074 859.224 34.904 859.768 34.904C860.312 34.904 860.754 35.074 861.094 35.414C861.456 35.754 861.638 36.196 861.638 36.74C861.638 37.3067 861.456 37.76 861.094 38.1C860.754 38.4173 860.312 38.576 859.768 38.576ZM866.707 58.5V41.976H869.019L869.257 44.356H869.359C870.152 43.5627 870.991 42.9053 871.875 42.384C872.759 41.84 873.768 41.568 874.901 41.568C876.646 41.568 877.916 42.1233 878.709 43.234C879.525 44.322 879.933 45.92 879.933 48.028V58.5H877.145V48.402C877.145 46.8607 876.896 45.7387 876.397 45.036C875.898 44.3333 875.105 43.982 874.017 43.982C873.178 43.982 872.419 44.1973 871.739 44.628C871.082 45.0587 870.334 45.6933 869.495 46.532V58.5H866.707ZM898.635 58.908C897.185 58.908 895.87 58.568 894.691 57.888C893.513 57.208 892.583 56.222 891.903 54.93C891.223 53.638 890.883 52.0853 890.883 50.272C890.883 48.4133 891.246 46.838 891.971 45.546C892.719 44.254 893.694 43.268 894.895 42.588C896.119 41.908 897.434 41.568 898.839 41.568C899.927 41.568 900.857 41.7607 901.627 42.146C902.421 42.5313 903.101 42.9847 903.667 43.506L902.239 45.342C901.763 44.9113 901.253 44.56 900.709 44.288C900.188 44.016 899.599 43.88 898.941 43.88C897.944 43.88 897.049 44.152 896.255 44.696C895.485 45.2173 894.873 45.9653 894.419 46.94C893.989 47.892 893.773 49.0027 893.773 50.272C893.773 52.1533 894.238 53.6833 895.167 54.862C896.119 56.018 897.355 56.596 898.873 56.596C899.644 56.596 900.358 56.4373 901.015 56.12C901.673 55.78 902.251 55.3833 902.749 54.93L903.973 56.8C903.225 57.4573 902.398 57.9787 901.491 58.364C900.585 58.7267 899.633 58.908 898.635 58.908ZM913.309 58.908C911.971 58.908 910.713 58.568 909.535 57.888C908.379 57.208 907.438 56.222 906.713 54.93C906.01 53.638 905.659 52.0853 905.659 50.272C905.659 48.4133 906.01 46.838 906.713 45.546C907.438 44.254 908.379 43.268 909.535 42.588C910.713 41.908 911.971 41.568 913.309 41.568C914.669 41.568 915.927 41.908 917.083 42.588C918.239 43.268 919.168 44.254 919.871 45.546C920.596 46.838 920.959 48.4133 920.959 50.272C920.959 52.0853 920.596 53.638 919.871 54.93C919.168 56.222 918.239 57.208 917.083 57.888C915.927 58.568 914.669 58.908 913.309 58.908ZM913.309 56.596C914.737 56.596 915.881 56.018 916.743 54.862C917.627 53.6833 918.069 52.1533 918.069 50.272C918.069 48.368 917.627 46.8267 916.743 45.648C915.881 44.4693 914.737 43.88 913.309 43.88C911.903 43.88 910.759 44.4693 909.875 45.648C908.991 46.8267 908.549 48.368 908.549 50.272C908.549 52.1533 908.991 53.6833 909.875 54.862C910.759 56.018 911.903 56.596 913.309 56.596ZM925.31 58.5V41.976H927.622L927.86 44.356H927.962C928.688 43.5627 929.481 42.9053 930.342 42.384C931.204 41.84 932.122 41.568 933.096 41.568C934.366 41.568 935.352 41.8513 936.054 42.418C936.78 42.962 937.312 43.7327 937.652 44.73C938.514 43.8007 939.386 43.0413 940.27 42.452C941.154 41.8627 942.095 41.568 943.092 41.568C944.792 41.568 946.05 42.1233 946.866 43.234C947.705 44.322 948.124 45.92 948.124 48.028V58.5H945.336V48.402C945.336 46.8607 945.087 45.7387 944.588 45.036C944.09 44.3333 943.319 43.982 942.276 43.982C941.052 43.982 939.67 44.832 938.128 46.532V58.5H935.34V48.402C935.34 46.8607 935.091 45.7387 934.592 45.036C934.094 44.3333 933.312 43.982 932.246 43.982C931.022 43.982 929.64 44.832 928.098 46.532V58.5H925.31ZM953.5 65.47V41.976H955.812L956.05 43.88H956.152C956.9 43.2453 957.716 42.7013 958.6 42.248C959.507 41.7947 960.447 41.568 961.422 41.568C963.553 41.568 965.173 42.3387 966.284 43.88C967.395 45.3987 967.95 47.4387 967.95 50C967.95 51.8587 967.61 53.4567 966.93 54.794C966.273 56.1313 965.4 57.1513 964.312 57.854C963.247 58.5567 962.079 58.908 960.81 58.908C960.039 58.908 959.269 58.738 958.498 58.398C957.75 58.058 956.991 57.5933 956.22 57.004L956.288 59.894V65.47H953.5ZM960.334 56.562C961.694 56.562 962.816 55.984 963.7 54.828C964.607 53.6493 965.06 52.04 965.06 50C965.06 48.1867 964.72 46.7247 964.04 45.614C963.383 44.4807 962.272 43.914 960.708 43.914C960.005 43.914 959.291 44.1067 958.566 44.492C957.863 44.8773 957.104 45.4327 956.288 46.158V54.828C957.036 55.4627 957.761 55.916 958.464 56.188C959.167 56.4373 959.79 56.562 960.334 56.562ZM977.187 58.908C975.442 58.908 974.161 58.364 973.345 57.276C972.529 56.1653 972.121 54.556 972.121 52.448V41.976H974.943V52.074C974.943 53.6153 975.181 54.7373 975.657 55.44C976.156 56.1427 976.949 56.494 978.037 56.494C978.899 56.494 979.658 56.2787 980.315 55.848C980.995 55.3947 981.721 54.6807 982.491 53.706V41.976H985.279V58.5H982.967L982.729 55.916H982.627C981.857 56.8227 981.041 57.548 980.179 58.092C979.318 58.636 978.321 58.908 977.187 58.908ZM996.055 58.908C994.287 58.908 993.052 58.398 992.349 57.378C991.669 56.358 991.329 55.032 991.329 53.4V44.254H988.881V42.146L991.465 41.976L991.805 37.352H994.151V41.976H998.605V44.254H994.151V53.434C994.151 54.454 994.333 55.2473 994.695 55.814C995.081 56.358 995.749 56.63 996.701 56.63C996.996 56.63 997.313 56.5847 997.653 56.494C997.993 56.3807 998.299 56.2787 998.571 56.188L999.115 58.296C998.662 58.4547 998.163 58.5907 997.619 58.704C997.098 58.84 996.577 58.908 996.055 58.908ZM1008.57 58.908C1007.1 58.908 1005.76 58.568 1004.56 57.888C1003.36 57.1853 1002.41 56.188 1001.71 54.896C1001 53.604 1000.65 52.0627 1000.65 50.272C1000.65 48.4587 1001 46.906 1001.71 45.614C1002.43 44.322 1003.36 43.3247 1004.49 42.622C1005.63 41.9193 1006.82 41.568 1008.06 41.568C1010.17 41.568 1011.79 42.2707 1012.93 43.676C1014.08 45.0813 1014.66 46.9627 1014.66 49.32C1014.66 49.6147 1014.65 49.9093 1014.63 50.204C1014.63 50.476 1014.6 50.714 1014.56 50.918H1003.41C1003.52 52.6633 1004.06 54.0573 1005.04 55.1C1006.04 56.1427 1007.33 56.664 1008.91 56.664C1009.71 56.664 1010.43 56.5507 1011.09 56.324C1011.77 56.0747 1012.42 55.7573 1013.03 55.372L1014.01 57.208C1013.31 57.6613 1012.51 58.058 1011.6 58.398C1010.72 58.738 1009.71 58.908 1008.57 58.908ZM1003.37 48.912H1012.21C1012.21 47.2347 1011.85 45.9653 1011.12 45.104C1010.42 44.22 1009.42 43.778 1008.13 43.778C1006.98 43.778 1005.93 44.2313 1005 45.138C1004.1 46.022 1003.55 47.28 1003.37 48.912Z"
     fill="black"
     id="path5" />
  <rect
     x="762.5"
     y="3.5"
     width="289"
     height="85"
     rx="11.5"
     stroke="#FFDFCA"
     id="rect5" />
  <path
     d="M905.939 240.061C906.525 240.646 907.475 240.646 908.061 240.061L917.607 230.515C918.192 229.929 918.192 228.979 917.607 228.393C917.021 227.808 916.071 227.808 915.485 228.393L907 236.879L898.515 228.393C897.929 227.808 896.979 227.808 896.393 228.393C895.808 228.979 895.808 229.929 896.393 230.515L905.939 240.061ZM905.5 93L905.5 239L908.5 239L908.5 93L905.5 93Z"
     fill="#B4B4B4"
     id="path6" />
  <rect
     x="500.5"
     y="374.5"
     width="379"
     height="123"
     rx="11.5"
     fill="#FFF3EB"
     id="rect6" />
  <path
     d="M589.691 427V407.076H582.959V404.696H599.279V407.076H592.547V427H589.691ZM601.463 427V410.476H603.775L604.013 413.468H604.115C604.681 412.425 605.373 411.598 606.189 410.986C607.005 410.374 607.877 410.068 608.807 410.068C609.464 410.068 610.053 410.181 610.575 410.408L610.031 412.856C609.759 412.765 609.509 412.697 609.283 412.652C609.056 412.607 608.773 412.584 608.433 412.584C607.73 412.584 606.993 412.867 606.223 413.434C605.475 414.001 604.817 414.987 604.251 416.392V427H601.463ZM616.228 427.408C614.845 427.408 613.689 427 612.76 426.184C611.853 425.345 611.4 424.189 611.4 422.716C611.4 420.903 612.205 419.52 613.814 418.568C615.446 417.593 618.019 416.913 621.532 416.528C621.532 415.825 621.43 415.157 621.226 414.522C621.045 413.887 620.705 413.377 620.206 412.992C619.73 412.584 619.039 412.38 618.132 412.38C617.18 412.38 616.285 412.561 615.446 412.924C614.607 413.287 613.859 413.695 613.202 414.148L612.114 412.21C612.885 411.711 613.825 411.235 614.936 410.782C616.069 410.306 617.293 410.068 618.608 410.068C620.625 410.068 622.087 410.691 622.994 411.938C623.901 413.162 624.354 414.805 624.354 416.868V427H622.042L621.804 425.028H621.702C620.931 425.663 620.081 426.218 619.152 426.694C618.245 427.17 617.271 427.408 616.228 427.408ZM617.044 425.164C617.837 425.164 618.585 424.971 619.288 424.586C619.991 424.201 620.739 423.657 621.532 422.954V418.364C618.789 418.704 616.863 419.214 615.752 419.894C614.664 420.574 614.12 421.447 614.12 422.512C614.12 423.441 614.403 424.121 614.97 424.552C615.537 424.96 616.228 425.164 617.044 425.164ZM629.553 427V410.476H632.341V427H629.553ZM630.981 407.076C630.437 407.076 629.983 406.917 629.621 406.6C629.281 406.26 629.111 405.807 629.111 405.24C629.111 404.696 629.281 404.254 629.621 403.914C629.983 403.574 630.437 403.404 630.981 403.404C631.525 403.404 631.967 403.574 632.307 403.914C632.669 404.254 632.851 404.696 632.851 405.24C632.851 405.807 632.669 406.26 632.307 406.6C631.967 406.917 631.525 407.076 630.981 407.076ZM637.92 427V410.476H640.232L640.47 412.856H640.572C641.365 412.063 642.204 411.405 643.088 410.884C643.972 410.34 644.981 410.068 646.114 410.068C647.859 410.068 649.129 410.623 649.922 411.734C650.738 412.822 651.146 414.42 651.146 416.528V427H648.358V416.902C648.358 415.361 648.109 414.239 647.61 413.536C647.111 412.833 646.318 412.482 645.23 412.482C644.391 412.482 643.632 412.697 642.952 413.128C642.295 413.559 641.547 414.193 640.708 415.032V427H637.92ZM656.514 427V410.476H659.302V427H656.514ZM657.942 407.076C657.398 407.076 656.944 406.917 656.582 406.6C656.242 406.26 656.072 405.807 656.072 405.24C656.072 404.696 656.242 404.254 656.582 403.914C656.944 403.574 657.398 403.404 657.942 403.404C658.486 403.404 658.928 403.574 659.268 403.914C659.63 404.254 659.812 404.696 659.812 405.24C659.812 405.807 659.63 406.26 659.268 406.6C658.928 406.917 658.486 407.076 657.942 407.076ZM664.881 427V410.476H667.193L667.431 412.856H667.533C668.326 412.063 669.165 411.405 670.049 410.884C670.933 410.34 671.941 410.068 673.075 410.068C674.82 410.068 676.089 410.623 676.883 411.734C677.699 412.822 678.107 414.42 678.107 416.528V427H675.319V416.902C675.319 415.361 675.069 414.239 674.571 413.536C674.072 412.833 673.279 412.482 672.191 412.482C671.352 412.482 670.593 412.697 669.913 413.128C669.255 413.559 668.507 414.193 667.669 415.032V427H664.881ZM689.051 434.616C687.033 434.616 685.39 434.231 684.121 433.46C682.851 432.689 682.217 431.59 682.217 430.162C682.217 429.459 682.432 428.779 682.863 428.122C683.293 427.487 683.883 426.921 684.631 426.422V426.286C684.223 426.037 683.871 425.685 683.577 425.232C683.305 424.779 683.169 424.235 683.169 423.6C683.169 422.897 683.361 422.285 683.747 421.764C684.132 421.243 684.54 420.835 684.971 420.54V420.404C684.427 419.951 683.928 419.339 683.475 418.568C683.044 417.797 682.829 416.925 682.829 415.95C682.829 414.749 683.112 413.706 683.679 412.822C684.245 411.938 685.005 411.258 685.957 410.782C686.909 410.306 687.94 410.068 689.051 410.068C689.504 410.068 689.935 410.113 690.343 410.204C690.751 410.272 691.102 410.363 691.397 410.476H697.143V412.618H693.743C694.128 412.981 694.445 413.468 694.695 414.08C694.967 414.669 695.103 415.315 695.103 416.018C695.103 417.197 694.831 418.217 694.287 419.078C693.743 419.939 693.017 420.608 692.111 421.084C691.204 421.537 690.184 421.764 689.051 421.764C688.167 421.764 687.339 421.571 686.569 421.186C686.274 421.435 686.025 421.719 685.821 422.036C685.617 422.331 685.515 422.705 685.515 423.158C685.515 423.679 685.719 424.11 686.127 424.45C686.557 424.79 687.328 424.96 688.439 424.96H691.635C693.561 424.96 695.001 425.277 695.953 425.912C696.927 426.524 697.415 427.521 697.415 428.904C697.415 429.924 697.075 430.865 696.395 431.726C695.715 432.587 694.751 433.279 693.505 433.8C692.258 434.344 690.773 434.616 689.051 434.616ZM689.051 419.894C690.003 419.894 690.819 419.543 691.499 418.84C692.201 418.115 692.553 417.151 692.553 415.95C692.553 414.749 692.213 413.808 691.533 413.128C690.853 412.448 690.025 412.108 689.051 412.108C688.076 412.108 687.249 412.448 686.569 413.128C685.889 413.808 685.549 414.749 685.549 415.95C685.549 417.151 685.889 418.115 686.569 418.84C687.271 419.543 688.099 419.894 689.051 419.894ZM689.459 432.678C691.045 432.678 692.315 432.327 693.267 431.624C694.219 430.944 694.695 430.173 694.695 429.312C694.695 428.541 694.4 428.009 693.811 427.714C693.244 427.419 692.428 427.272 691.363 427.272H688.507C688.189 427.272 687.838 427.249 687.453 427.204C687.09 427.159 686.727 427.091 686.365 427C685.775 427.431 685.345 427.884 685.073 428.36C684.801 428.836 684.665 429.312 684.665 429.788C684.665 430.672 685.084 431.375 685.923 431.896C686.784 432.417 687.963 432.678 689.459 432.678ZM713.942 427.408C712.491 427.408 711.177 427.068 709.998 426.388C708.819 425.708 707.89 424.722 707.21 423.43C706.53 422.138 706.19 420.585 706.19 418.772C706.19 416.913 706.553 415.338 707.278 414.046C708.026 412.754 709.001 411.768 710.202 411.088C711.426 410.408 712.741 410.068 714.146 410.068C715.234 410.068 716.163 410.261 716.934 410.646C717.727 411.031 718.407 411.485 718.974 412.006L717.546 413.842C717.07 413.411 716.56 413.06 716.016 412.788C715.495 412.516 714.905 412.38 714.248 412.38C713.251 412.38 712.355 412.652 711.562 413.196C710.791 413.717 710.179 414.465 709.726 415.44C709.295 416.392 709.08 417.503 709.08 418.772C709.08 420.653 709.545 422.183 710.474 423.362C711.426 424.518 712.661 425.096 714.18 425.096C714.951 425.096 715.665 424.937 716.322 424.62C716.979 424.28 717.557 423.883 718.056 423.43L719.28 425.3C718.532 425.957 717.705 426.479 716.798 426.864C715.891 427.227 714.939 427.408 713.942 427.408ZM726.396 427.408C725.013 427.408 723.857 427 722.928 426.184C722.021 425.345 721.568 424.189 721.568 422.716C721.568 420.903 722.372 419.52 723.982 418.568C725.614 417.593 728.186 416.913 731.7 416.528C731.7 415.825 731.598 415.157 731.394 414.522C731.212 413.887 730.872 413.377 730.374 412.992C729.898 412.584 729.206 412.38 728.3 412.38C727.348 412.38 726.452 412.561 725.614 412.924C724.775 413.287 724.027 413.695 723.37 414.148L722.282 412.21C723.052 411.711 723.993 411.235 725.104 410.782C726.237 410.306 727.461 410.068 728.776 410.068C730.793 410.068 732.255 410.691 733.162 411.938C734.068 413.162 734.522 414.805 734.522 416.868V427H732.21L731.972 425.028H731.87C731.099 425.663 730.249 426.218 729.32 426.694C728.413 427.17 727.438 427.408 726.396 427.408ZM727.212 425.164C728.005 425.164 728.753 424.971 729.456 424.586C730.158 424.201 730.906 423.657 731.7 422.954V418.364C728.957 418.704 727.03 419.214 725.92 419.894C724.832 420.574 724.288 421.447 724.288 422.512C724.288 423.441 724.571 424.121 725.138 424.552C725.704 424.96 726.396 425.164 727.212 425.164ZM739.721 427V410.476H742.033L742.271 412.856H742.373C743.166 412.063 744.005 411.405 744.889 410.884C745.773 410.34 746.781 410.068 747.915 410.068C749.66 410.068 750.929 410.623 751.723 411.734C752.539 412.822 752.947 414.42 752.947 416.528V427H750.159V416.902C750.159 415.361 749.909 414.239 749.411 413.536C748.912 412.833 748.119 412.482 747.031 412.482C746.192 412.482 745.433 412.697 744.753 413.128C744.095 413.559 743.347 414.193 742.509 415.032V427H739.721ZM772.431 427.408C771.66 427.408 770.856 427.227 770.017 426.864C769.201 426.479 768.43 425.957 767.705 425.3H767.603L767.365 427H765.121V402.792H767.909V409.388L767.841 412.38C768.589 411.723 769.405 411.179 770.289 410.748C771.196 410.295 772.102 410.068 773.009 410.068C775.162 410.068 776.794 410.827 777.905 412.346C779.016 413.865 779.571 415.905 779.571 418.466C779.571 420.347 779.231 421.957 778.551 423.294C777.894 424.631 777.021 425.651 775.933 426.354C774.868 427.057 773.7 427.408 772.431 427.408ZM771.955 425.062C773.315 425.062 774.437 424.484 775.321 423.328C776.228 422.149 776.681 420.54 776.681 418.5C776.681 416.687 776.341 415.225 775.661 414.114C775.004 412.981 773.893 412.414 772.329 412.414C771.626 412.414 770.912 412.607 770.187 412.992C769.462 413.377 768.702 413.933 767.909 414.658V423.328C768.634 423.963 769.348 424.416 770.051 424.688C770.776 424.937 771.411 425.062 771.955 425.062ZM790.612 427.408C789.139 427.408 787.801 427.068 786.6 426.388C785.399 425.685 784.447 424.688 783.744 423.396C783.041 422.104 782.69 420.563 782.69 418.772C782.69 416.959 783.041 415.406 783.744 414.114C784.469 412.822 785.399 411.825 786.532 411.122C787.665 410.419 788.855 410.068 790.102 410.068C792.21 410.068 793.831 410.771 794.964 412.176C796.12 413.581 796.698 415.463 796.698 417.82C796.698 418.115 796.687 418.409 796.664 418.704C796.664 418.976 796.641 419.214 796.596 419.418H785.444C785.557 421.163 786.101 422.557 787.076 423.6C788.073 424.643 789.365 425.164 790.952 425.164C791.745 425.164 792.471 425.051 793.128 424.824C793.808 424.575 794.454 424.257 795.066 423.872L796.052 425.708C795.349 426.161 794.545 426.558 793.638 426.898C792.754 427.238 791.745 427.408 790.612 427.408ZM785.41 417.412H794.25C794.25 415.735 793.887 414.465 793.162 413.604C792.459 412.72 791.462 412.278 790.17 412.278C789.014 412.278 787.971 412.731 787.042 413.638C786.135 414.522 785.591 415.78 785.41 417.412ZM560.324 470.408C558.261 470.408 556.606 469.66 555.36 468.164C554.113 466.645 553.49 464.515 553.49 461.772C553.49 459.981 553.818 458.44 554.476 457.148C555.156 455.833 556.04 454.825 557.128 454.122C558.238 453.419 559.417 453.068 560.664 453.068C561.616 453.068 562.443 453.238 563.146 453.578C563.848 453.918 564.562 454.383 565.288 454.972L565.152 452.15V445.792H567.974V470H565.662L565.424 468.062H565.322C564.687 468.697 563.939 469.252 563.078 469.728C562.216 470.181 561.298 470.408 560.324 470.408ZM560.936 468.062C562.386 468.062 563.792 467.303 565.152 465.784V457.148C564.449 456.513 563.769 456.071 563.112 455.822C562.477 455.55 561.82 455.414 561.14 455.414C560.256 455.414 559.451 455.686 558.726 456.23C558.023 456.751 557.456 457.488 557.026 458.44C556.595 459.369 556.38 460.469 556.38 461.738C556.38 463.71 556.776 465.263 557.57 466.396C558.363 467.507 559.485 468.062 560.936 468.062ZM579.965 470.408C578.628 470.408 577.37 470.068 576.191 469.388C575.035 468.708 574.094 467.722 573.369 466.43C572.666 465.138 572.315 463.585 572.315 461.772C572.315 459.913 572.666 458.338 573.369 457.046C574.094 455.754 575.035 454.768 576.191 454.088C577.37 453.408 578.628 453.068 579.965 453.068C581.325 453.068 582.583 453.408 583.739 454.088C584.895 454.768 585.824 455.754 586.527 457.046C587.252 458.338 587.615 459.913 587.615 461.772C587.615 463.585 587.252 465.138 586.527 466.43C585.824 467.722 584.895 468.708 583.739 469.388C582.583 470.068 581.325 470.408 579.965 470.408ZM579.965 468.096C581.393 468.096 582.538 467.518 583.399 466.362C584.283 465.183 584.725 463.653 584.725 461.772C584.725 459.868 584.283 458.327 583.399 457.148C582.538 455.969 581.393 455.38 579.965 455.38C578.56 455.38 577.415 455.969 576.531 457.148C575.647 458.327 575.205 459.868 575.205 461.772C575.205 463.653 575.647 465.183 576.531 466.362C577.415 467.518 578.56 468.096 579.965 468.096ZM591.967 470V453.476H594.279L594.517 455.856H594.619C595.412 455.063 596.251 454.405 597.135 453.884C598.019 453.34 599.027 453.068 600.161 453.068C601.906 453.068 603.175 453.623 603.969 454.734C604.785 455.822 605.193 457.42 605.193 459.528V470H602.405V459.902C602.405 458.361 602.155 457.239 601.657 456.536C601.158 455.833 600.365 455.482 599.277 455.482C598.438 455.482 597.679 455.697 596.999 456.128C596.341 456.559 595.593 457.193 594.755 458.032V470H591.967ZM617.258 470.408C615.785 470.408 614.448 470.068 613.246 469.388C612.045 468.685 611.093 467.688 610.39 466.396C609.688 465.104 609.336 463.563 609.336 461.772C609.336 459.959 609.688 458.406 610.39 457.114C611.116 455.822 612.045 454.825 613.178 454.122C614.312 453.419 615.502 453.068 616.748 453.068C618.856 453.068 620.477 453.771 621.61 455.176C622.766 456.581 623.344 458.463 623.344 460.82C623.344 461.115 623.333 461.409 623.31 461.704C623.31 461.976 623.288 462.214 623.242 462.418H612.09C612.204 464.163 612.748 465.557 613.722 466.6C614.72 467.643 616.012 468.164 617.598 468.164C618.392 468.164 619.117 468.051 619.774 467.824C620.454 467.575 621.1 467.257 621.712 466.872L622.698 468.708C621.996 469.161 621.191 469.558 620.284 469.898C619.4 470.238 618.392 470.408 617.258 470.408ZM612.056 460.412H620.896C620.896 458.735 620.534 457.465 619.808 456.604C619.106 455.72 618.108 455.278 616.816 455.278C615.66 455.278 614.618 455.731 613.688 456.638C612.782 457.522 612.238 458.78 612.056 460.412ZM640.66 470.408C639.323 470.408 638.065 470.068 636.886 469.388C635.73 468.708 634.79 467.722 634.064 466.43C633.362 465.138 633.01 463.585 633.01 461.772C633.01 459.913 633.362 458.338 634.064 457.046C634.79 455.754 635.73 454.768 636.886 454.088C638.065 453.408 639.323 453.068 640.66 453.068C642.02 453.068 643.278 453.408 644.434 454.088C645.59 454.768 646.52 455.754 647.222 457.046C647.948 458.338 648.31 459.913 648.31 461.772C648.31 463.585 647.948 465.138 647.222 466.43C646.52 467.722 645.59 468.708 644.434 469.388C643.278 470.068 642.02 470.408 640.66 470.408ZM640.66 468.096C642.088 468.096 643.233 467.518 644.094 466.362C644.978 465.183 645.42 463.653 645.42 461.772C645.42 459.868 644.978 458.327 644.094 457.148C643.233 455.969 642.088 455.38 640.66 455.38C639.255 455.38 638.11 455.969 637.226 457.148C636.342 458.327 635.9 459.868 635.9 461.772C635.9 463.653 636.342 465.183 637.226 466.362C638.11 467.518 639.255 468.096 640.66 468.096ZM652.662 470V453.476H654.974L655.212 455.856H655.314C656.107 455.063 656.946 454.405 657.83 453.884C658.714 453.34 659.723 453.068 660.856 453.068C662.601 453.068 663.871 453.623 664.664 454.734C665.48 455.822 665.888 457.42 665.888 459.528V470H663.1V459.902C663.1 458.361 662.851 457.239 662.352 456.536C661.853 455.833 661.06 455.482 659.972 455.482C659.133 455.482 658.374 455.697 657.694 456.128C657.037 456.559 656.289 457.193 655.45 458.032V470H652.662ZM682.38 470.408C681.202 470.408 680.08 470.193 679.014 469.762C677.949 469.309 677.02 468.765 676.226 468.13L677.62 466.26C678.346 466.827 679.094 467.303 679.864 467.688C680.635 468.051 681.508 468.232 682.482 468.232C683.57 468.232 684.386 467.983 684.93 467.484C685.474 466.963 685.746 466.351 685.746 465.648C685.746 465.081 685.554 464.605 685.168 464.22C684.806 463.835 684.33 463.517 683.74 463.268C683.174 462.996 682.584 462.747 681.972 462.52C681.202 462.225 680.442 461.897 679.694 461.534C678.946 461.149 678.334 460.661 677.858 460.072C677.382 459.46 677.144 458.689 677.144 457.76C677.144 456.423 677.643 455.312 678.64 454.428C679.66 453.521 681.066 453.068 682.856 453.068C683.876 453.068 684.828 453.249 685.712 453.612C686.596 453.975 687.356 454.417 687.99 454.938L686.63 456.706C686.064 456.275 685.474 455.924 684.862 455.652C684.25 455.38 683.582 455.244 682.856 455.244C681.814 455.244 681.043 455.482 680.544 455.958C680.068 456.434 679.83 456.989 679.83 457.624C679.83 458.145 680 458.576 680.34 458.916C680.68 459.233 681.122 459.517 681.666 459.766C682.21 459.993 682.788 460.231 683.4 460.48C684.194 460.775 684.976 461.115 685.746 461.5C686.517 461.863 687.152 462.361 687.65 462.996C688.172 463.608 688.432 464.435 688.432 465.478C688.432 466.362 688.194 467.178 687.718 467.926C687.265 468.674 686.585 469.275 685.678 469.728C684.794 470.181 683.695 470.408 682.38 470.408ZM692.307 470V453.476H695.095V470H692.307ZM693.735 450.076C693.191 450.076 692.737 449.917 692.375 449.6C692.035 449.26 691.865 448.807 691.865 448.24C691.865 447.696 692.035 447.254 692.375 446.914C692.737 446.574 693.191 446.404 693.735 446.404C694.279 446.404 694.721 446.574 695.061 446.914C695.423 447.254 695.605 447.696 695.605 448.24C695.605 448.807 695.423 449.26 695.061 449.6C694.721 449.917 694.279 450.076 693.735 450.076ZM700.674 470V453.476H702.986L703.224 455.856H703.326C704.119 455.063 704.958 454.405 705.842 453.884C706.726 453.34 707.734 453.068 708.868 453.068C710.613 453.068 711.882 453.623 712.676 454.734C713.492 455.822 713.9 457.42 713.9 459.528V470H711.112V459.902C711.112 458.361 710.862 457.239 710.364 456.536C709.865 455.833 709.072 455.482 707.984 455.482C707.145 455.482 706.386 455.697 705.706 456.128C705.048 456.559 704.3 457.193 703.462 458.032V470H700.674ZM724.843 477.616C722.826 477.616 721.183 477.231 719.913 476.46C718.644 475.689 718.009 474.59 718.009 473.162C718.009 472.459 718.225 471.779 718.655 471.122C719.086 470.487 719.675 469.921 720.423 469.422V469.286C720.015 469.037 719.664 468.685 719.369 468.232C719.097 467.779 718.961 467.235 718.961 466.6C718.961 465.897 719.154 465.285 719.539 464.764C719.925 464.243 720.333 463.835 720.763 463.54V463.404C720.219 462.951 719.721 462.339 719.267 461.568C718.837 460.797 718.621 459.925 718.621 458.95C718.621 457.749 718.905 456.706 719.471 455.822C720.038 454.938 720.797 454.258 721.749 453.782C722.701 453.306 723.733 453.068 724.843 453.068C725.297 453.068 725.727 453.113 726.135 453.204C726.543 453.272 726.895 453.363 727.189 453.476H732.935V455.618H729.535C729.921 455.981 730.238 456.468 730.487 457.08C730.759 457.669 730.895 458.315 730.895 459.018C730.895 460.197 730.623 461.217 730.079 462.078C729.535 462.939 728.81 463.608 727.903 464.084C726.997 464.537 725.977 464.764 724.843 464.764C723.959 464.764 723.132 464.571 722.361 464.186C722.067 464.435 721.817 464.719 721.613 465.036C721.409 465.331 721.307 465.705 721.307 466.158C721.307 466.679 721.511 467.11 721.919 467.45C722.35 467.79 723.121 467.96 724.231 467.96H727.427C729.354 467.96 730.793 468.277 731.745 468.912C732.72 469.524 733.207 470.521 733.207 471.904C733.207 472.924 732.867 473.865 732.187 474.726C731.507 475.587 730.544 476.279 729.297 476.8C728.051 477.344 726.566 477.616 724.843 477.616ZM724.843 462.894C725.795 462.894 726.611 462.543 727.291 461.84C727.994 461.115 728.345 460.151 728.345 458.95C728.345 457.749 728.005 456.808 727.325 456.128C726.645 455.448 725.818 455.108 724.843 455.108C723.869 455.108 723.041 455.448 722.361 456.128C721.681 456.808 721.341 457.749 721.341 458.95C721.341 460.151 721.681 461.115 722.361 461.84C723.064 462.543 723.891 462.894 724.843 462.894ZM725.251 475.678C726.838 475.678 728.107 475.327 729.059 474.624C730.011 473.944 730.487 473.173 730.487 472.312C730.487 471.541 730.193 471.009 729.603 470.714C729.037 470.419 728.221 470.272 727.155 470.272H724.299C723.982 470.272 723.631 470.249 723.245 470.204C722.883 470.159 722.52 470.091 722.157 470C721.568 470.431 721.137 470.884 720.865 471.36C720.593 471.836 720.457 472.312 720.457 472.788C720.457 473.672 720.877 474.375 721.715 474.896C722.577 475.417 723.755 475.678 725.251 475.678ZM739.358 470.408C738.316 470.408 737.556 470.091 737.08 469.456C736.627 468.799 736.4 467.869 736.4 466.668V445.792H739.188V466.872C739.188 467.303 739.268 467.62 739.426 467.824C739.585 468.005 739.766 468.096 739.97 468.096C740.061 468.096 740.14 468.096 740.208 468.096C740.299 468.073 740.424 468.051 740.582 468.028L740.956 470.136C740.775 470.227 740.56 470.295 740.31 470.34C740.061 470.385 739.744 470.408 739.358 470.408ZM751.764 470.408C750.291 470.408 748.954 470.068 747.752 469.388C746.551 468.685 745.599 467.688 744.896 466.396C744.194 465.104 743.842 463.563 743.842 461.772C743.842 459.959 744.194 458.406 744.896 457.114C745.622 455.822 746.551 454.825 747.684 454.122C748.818 453.419 750.008 453.068 751.254 453.068C753.362 453.068 754.983 453.771 756.116 455.176C757.272 456.581 757.85 458.463 757.85 460.82C757.85 461.115 757.839 461.409 757.816 461.704C757.816 461.976 757.794 462.214 757.748 462.418H746.596C746.71 464.163 747.254 465.557 748.228 466.6C749.226 467.643 750.518 468.164 752.104 468.164C752.898 468.164 753.623 468.051 754.28 467.824C754.96 467.575 755.606 467.257 756.218 466.872L757.204 468.708C756.502 469.161 755.697 469.558 754.79 469.898C753.906 470.238 752.898 470.408 751.764 470.408ZM746.562 460.412H755.402C755.402 458.735 755.04 457.465 754.314 456.604C753.612 455.72 752.614 455.278 751.322 455.278C750.166 455.278 749.124 455.731 748.194 456.638C747.288 457.522 746.744 458.78 746.562 460.412ZM777.784 470.408C775.835 470.408 774.101 469.955 772.582 469.048C771.063 468.119 769.873 466.793 769.012 465.07C768.151 463.347 767.72 461.273 767.72 458.848C767.72 456.445 768.162 454.383 769.046 452.66C769.93 450.937 771.143 449.611 772.684 448.682C774.225 447.753 775.982 447.288 777.954 447.288C779.495 447.288 780.787 447.583 781.83 448.172C782.895 448.739 783.745 449.362 784.38 450.042L782.816 451.878C782.249 451.289 781.592 450.79 780.844 450.382C780.096 449.974 779.155 449.77 778.022 449.77C776.526 449.77 775.223 450.144 774.112 450.892C773.001 451.617 772.14 452.649 771.528 453.986C770.939 455.323 770.644 456.921 770.644 458.78C770.644 461.591 771.279 463.823 772.548 465.478C773.84 467.11 775.676 467.926 778.056 467.926C778.849 467.926 779.609 467.813 780.334 467.586C781.059 467.337 781.637 467.008 782.068 466.6V460.786H777.342V458.44H784.652V467.824C783.949 468.572 782.997 469.195 781.796 469.694C780.617 470.17 779.28 470.408 777.784 470.408ZM789.997 470V447.696H796.355C798.032 447.696 799.494 447.9 800.741 448.308C801.987 448.716 802.962 449.407 803.665 450.382C804.367 451.334 804.719 452.626 804.719 454.258C804.719 456.593 803.959 458.327 802.441 459.46C800.922 460.593 798.939 461.16 796.491 461.16H792.819V470H789.997ZM792.819 458.848H796.151C798.1 458.848 799.539 458.485 800.469 457.76C801.421 457.012 801.897 455.845 801.897 454.258C801.897 452.649 801.398 451.538 800.401 450.926C799.426 450.291 797.964 449.974 796.015 449.974H792.819V458.848ZM817.176 470.408C815.658 470.408 814.286 470.102 813.062 469.49C811.861 468.878 810.909 467.869 810.206 466.464C809.504 465.059 809.152 463.166 809.152 460.786V447.696H811.974V460.854C811.974 462.645 812.201 464.061 812.654 465.104C813.13 466.124 813.754 466.849 814.524 467.28C815.318 467.711 816.202 467.926 817.176 467.926C818.174 467.926 819.069 467.711 819.862 467.28C820.656 466.849 821.279 466.124 821.732 465.104C822.208 464.061 822.446 462.645 822.446 460.854V447.696H825.166V460.786C825.166 463.166 824.815 465.059 824.112 466.464C823.41 467.869 822.458 468.878 821.256 469.49C820.055 470.102 818.695 470.408 817.176 470.408Z"
     fill="black"
     id="path7" />
  <rect
     x="500.5"
     y="374.5"
     width="379"
     height="123"
     rx="11.5"
     stroke="#FFDFCA"
     id="rect7" />
  <rect
     x="934.5"
     y="374.5"
     width="379"
     height="123"
     rx="11.5"
     fill="#FFF3EB"
     id="rect8" />
  <rect
     x="934.5"
     y="374.5"
     width="379"
     height="123"
     rx="11.5"
     stroke="#FFDFCA"
     id="rect9" />
  <path
     d="M691.061 259.939C690.475 259.354 689.525 259.354 688.939 259.939L679.393 269.485C678.808 270.071 678.808 271.021 679.393 271.607C679.979 272.192 680.929 272.192 681.515 271.607L690 263.121L698.485 271.607C699.071 272.192 700.021 272.192 700.607 271.607C701.192 271.021 701.192 270.071 700.607 269.485L691.061 259.939ZM691.5 360L691.5 261L688.5 261L688.5 360L691.5 360Z"
     fill="#B4B4B4"
     id="path9" />
  <path
     d="M1125.06 259.939C1124.47 259.354 1123.53 259.354 1122.94 259.939L1113.39 269.485C1112.81 270.071 1112.81 271.021 1113.39 271.607C1113.98 272.192 1114.93 272.192 1115.51 271.607L1124 263.121L1132.49 271.607C1133.07 272.192 1134.02 272.192 1134.61 271.607C1135.19 271.021 1135.19 270.071 1134.61 269.485L1125.06 259.939ZM1125.5 360L1125.5 261L1122.5 261L1122.5 360L1125.5 360Z"
     fill="#B4B4B4"
     id="path10" />
  <text
     xml:space="preserve"
     style="font-size:33.3333px;line-height:31.85;text-align:start;writing-mode:lr-tb;direction:ltr;text-anchor:start;fill:#000000"
     x="960.18744"
     y="427.56906"
     id="text12"><tspan
       sodipodi:role="line"
       id="tspan12"
       x="960.18744"
       y="427.56906" /></text>
  <text
     xml:space="preserve"
     style="font-size:28px;line-height:31.85;text-align:start;writing-mode:lr-tb;direction:ltr;text-anchor:start;fill:#000000"
     x="1101.5027"
     y="442.31284"
     id="text13"><tspan
       sodipodi:role="line"
       id="tspan13"
       x="1101.5027"
       y="442.31284"
       style="text-align:center;text-anchor:middle">Easily Reproducible</tspan></text>
</svg>
