<?xml version="1.0" encoding="UTF-8" standalone="no"?>
<svg
   width="1816"
   height="589"
   viewBox="0 0 1816 589"
   fill="none"
   version="1.1"
   id="svg12"
   sodipodi:docname="finetuning_darkupdated.svg"
   inkscape:version="1.4.2 (ebf0e940, 2025-05-08)"
   xmlns:inkscape="http://www.inkscape.org/namespaces/inkscape"
   xmlns:sodipodi="http://sodipodi.sourceforge.net/DTD/sodipodi-0.dtd"
   xmlns="http://www.w3.org/2000/svg"
   xmlns:svg="http://www.w3.org/2000/svg">
  <defs
     id="defs12" />
  <sodipodi:namedview
     id="namedview12"
     pagecolor="#ffffff"
     bordercolor="#000000"
     borderopacity="0.25"
     inkscape:showpageshadow="2"
     inkscape:pageopacity="0.0"
     inkscape:pagecheckerboard="0"
     inkscape:deskcolor="#d1d1d1"
     inkscape:zoom="0.50686018"
     inkscape:cx="914.45337"
     inkscape:cy="414.31544"
     inkscape:window-width="1440"
     inkscape:window-height="791"
     inkscape:window-x="0"
     inkscape:window-y="25"
     inkscape:window-maximized="0"
     inkscape:current-layer="svg12" />
  <rect
     width="1816"
     height="589"
     fill="#0C0F19"
     id="rect1" />
  <rect
     x="1"
     y="48"
     width="378"
     height="493"
     rx="39"
     fill="#171616"
     id="rect2" />
  <path
     d="M105.651 283.5V257.26H113.131C115.104 257.26 116.824 257.5 118.291 257.98C119.757 258.46 120.904 259.273 121.731 260.42C122.557 261.54 122.971 263.06 122.971 264.98C122.971 267.727 122.077 269.767 120.291 271.1C118.504 272.433 116.171 273.1 113.291 273.1H108.971V283.5H105.651ZM108.971 270.38H112.891C115.184 270.38 116.877 269.953 117.971 269.1C119.091 268.22 119.651 266.847 119.651 264.98C119.651 263.087 119.064 261.78 117.891 261.06C116.744 260.313 115.024 259.94 112.731 259.94H108.971V270.38ZM127.987 283.5V264.06H130.707L130.987 267.58H131.107C131.774 266.353 132.587 265.38 133.547 264.66C134.507 263.94 135.534 263.58 136.627 263.58C137.4 263.58 138.094 263.713 138.707 263.98L138.067 266.86C137.747 266.753 137.454 266.673 137.187 266.62C136.92 266.567 136.587 266.54 136.187 266.54C135.36 266.54 134.494 266.873 133.587 267.54C132.707 268.207 131.934 269.367 131.267 271.02V283.5H127.987ZM149.344 283.98C147.61 283.98 146.037 283.58 144.624 282.78C143.21 281.953 142.09 280.78 141.264 279.26C140.437 277.74 140.024 275.927 140.024 273.82C140.024 271.687 140.437 269.86 141.264 268.34C142.117 266.82 143.21 265.647 144.544 264.82C145.877 263.993 147.277 263.58 148.744 263.58C151.224 263.58 153.13 264.407 154.464 266.06C155.824 267.713 156.504 269.927 156.504 272.7C156.504 273.047 156.49 273.393 156.464 273.74C156.464 274.06 156.437 274.34 156.384 274.58H143.264C143.397 276.633 144.037 278.273 145.184 279.5C146.357 280.727 147.877 281.34 149.744 281.34C150.677 281.34 151.53 281.207 152.304 280.94C153.104 280.647 153.864 280.273 154.584 279.82L155.744 281.98C154.917 282.513 153.97 282.98 152.904 283.38C151.864 283.78 150.677 283.98 149.344 283.98ZM143.224 272.22H153.624C153.624 270.247 153.197 268.753 152.344 267.74C151.517 266.7 150.344 266.18 148.824 266.18C147.464 266.18 146.237 266.713 145.144 267.78C144.077 268.82 143.437 270.3 143.224 272.22ZM167.037 283.98C164.957 283.98 163.503 283.38 162.677 282.18C161.877 280.98 161.477 279.42 161.477 277.5V266.74H158.597V264.26L161.637 264.06L162.037 258.62H164.797V264.06H170.037V266.74H164.797V277.54C164.797 278.74 165.01 279.673 165.437 280.34C165.89 280.98 166.677 281.3 167.797 281.3C168.143 281.3 168.517 281.247 168.917 281.14C169.317 281.007 169.677 280.887 169.997 280.78L170.637 283.26C170.103 283.447 169.517 283.607 168.877 283.74C168.263 283.9 167.65 283.98 167.037 283.98ZM174.432 283.5V264.06H177.152L177.432 267.58H177.552C178.219 266.353 179.032 265.38 179.992 264.66C180.952 263.94 181.979 263.58 183.072 263.58C183.846 263.58 184.539 263.713 185.152 263.98L184.512 266.86C184.192 266.753 183.899 266.673 183.632 266.62C183.366 266.567 183.032 266.54 182.632 266.54C181.806 266.54 180.939 266.873 180.032 267.54C179.152 268.207 178.379 269.367 177.712 271.02V283.5H174.432ZM191.803 283.98C190.176 283.98 188.816 283.5 187.723 282.54C186.656 281.553 186.123 280.193 186.123 278.46C186.123 276.327 187.07 274.7 188.963 273.58C190.883 272.433 193.91 271.633 198.043 271.18C198.043 270.353 197.923 269.567 197.683 268.82C197.47 268.073 197.07 267.473 196.483 267.02C195.923 266.54 195.11 266.3 194.043 266.3C192.923 266.3 191.87 266.513 190.883 266.94C189.896 267.367 189.016 267.847 188.243 268.38L186.963 266.1C187.87 265.513 188.976 264.953 190.283 264.42C191.616 263.86 193.056 263.58 194.603 263.58C196.976 263.58 198.696 264.313 199.763 265.78C200.83 267.22 201.363 269.153 201.363 271.58V283.5H198.643L198.363 281.18H198.243C197.336 281.927 196.336 282.58 195.243 283.14C194.176 283.7 193.03 283.98 191.803 283.98ZM192.763 281.34C193.696 281.34 194.576 281.113 195.403 280.66C196.23 280.207 197.11 279.567 198.043 278.74V273.34C194.816 273.74 192.55 274.34 191.243 275.14C189.963 275.94 189.323 276.967 189.323 278.22C189.323 279.313 189.656 280.113 190.323 280.62C190.99 281.1 191.803 281.34 192.763 281.34ZM207.479 283.5V264.06H210.759V283.5H207.479ZM209.159 260.06C208.519 260.06 207.986 259.873 207.559 259.5C207.159 259.1 206.959 258.567 206.959 257.9C206.959 257.26 207.159 256.74 207.559 256.34C207.986 255.94 208.519 255.74 209.159 255.74C209.799 255.74 210.319 255.94 210.719 256.34C211.146 256.74 211.359 257.26 211.359 257.9C211.359 258.567 211.146 259.1 210.719 259.5C210.319 259.873 209.799 260.06 209.159 260.06ZM217.323 283.5V264.06H220.043L220.323 266.86H220.443C221.376 265.927 222.363 265.153 223.403 264.54C224.443 263.9 225.63 263.58 226.963 263.58C229.016 263.58 230.51 264.233 231.443 265.54C232.403 266.82 232.883 268.7 232.883 271.18V283.5H229.603V271.62C229.603 269.807 229.31 268.487 228.723 267.66C228.136 266.833 227.203 266.42 225.923 266.42C224.936 266.42 224.043 266.673 223.243 267.18C222.47 267.687 221.59 268.433 220.603 269.42V283.5H217.323ZM247.078 283.98C245.345 283.98 243.771 283.58 242.358 282.78C240.945 281.953 239.825 280.78 238.998 279.26C238.171 277.74 237.758 275.927 237.758 273.82C237.758 271.687 238.171 269.86 238.998 268.34C239.851 266.82 240.945 265.647 242.278 264.82C243.611 263.993 245.011 263.58 246.478 263.58C248.958 263.58 250.865 264.407 252.198 266.06C253.558 267.713 254.238 269.927 254.238 272.7C254.238 273.047 254.225 273.393 254.198 273.74C254.198 274.06 254.171 274.34 254.118 274.58H240.998C241.131 276.633 241.771 278.273 242.918 279.5C244.091 280.727 245.611 281.34 247.478 281.34C248.411 281.34 249.265 281.207 250.038 280.94C250.838 280.647 251.598 280.273 252.318 279.82L253.478 281.98C252.651 282.513 251.705 282.98 250.638 283.38C249.598 283.78 248.411 283.98 247.078 283.98ZM240.958 272.22H251.358C251.358 270.247 250.931 268.753 250.078 267.74C249.251 266.7 248.078 266.18 246.558 266.18C245.198 266.18 243.971 266.713 242.878 267.78C241.811 268.82 241.171 270.3 240.958 272.22ZM265.682 283.98C263.255 283.98 261.308 283.1 259.842 281.34C258.375 279.553 257.642 277.047 257.642 273.82C257.642 271.713 258.028 269.9 258.802 268.38C259.602 266.833 260.642 265.647 261.922 264.82C263.228 263.993 264.615 263.58 266.082 263.58C267.202 263.58 268.175 263.78 269.002 264.18C269.828 264.58 270.668 265.127 271.522 265.82L271.362 262.5V255.02H274.682V283.5H271.962L271.682 281.22H271.562C270.815 281.967 269.935 282.62 268.922 283.18C267.908 283.713 266.828 283.98 265.682 283.98ZM266.402 281.22C268.108 281.22 269.762 280.327 271.362 278.54V268.38C270.535 267.633 269.735 267.113 268.962 266.82C268.215 266.5 267.442 266.34 266.642 266.34C265.602 266.34 264.655 266.66 263.802 267.3C262.975 267.913 262.308 268.78 261.802 269.9C261.295 270.993 261.042 272.287 261.042 273.78C261.042 276.1 261.508 277.927 262.442 279.26C263.375 280.567 264.695 281.22 266.402 281.22ZM62.3459 333.98C61.1193 333.98 60.2259 333.607 59.6659 332.86C59.1326 332.087 58.8659 330.993 58.8659 329.58V305.02H62.1459V329.82C62.1459 330.327 62.2393 330.7 62.4259 330.94C62.6126 331.153 62.8259 331.26 63.0659 331.26C63.1726 331.26 63.2659 331.26 63.3459 331.26C63.4526 331.233 63.5993 331.207 63.7859 331.18L64.2259 333.66C64.0126 333.767 63.7593 333.847 63.4659 333.9C63.1726 333.953 62.7993 333.98 62.3459 333.98ZM73.5413 333.98C71.9146 333.98 70.5546 333.5 69.4613 332.54C68.3946 331.553 67.8613 330.193 67.8613 328.46C67.8613 326.327 68.8079 324.7 70.7013 323.58C72.6213 322.433 75.6479 321.633 79.7813 321.18C79.7813 320.353 79.6613 319.567 79.4213 318.82C79.2079 318.073 78.8079 317.473 78.2213 317.02C77.6613 316.54 76.8479 316.3 75.7812 316.3C74.6613 316.3 73.6079 316.513 72.6213 316.94C71.6346 317.367 70.7546 317.847 69.9813 318.38L68.7013 316.1C69.6079 315.513 70.7146 314.953 72.0213 314.42C73.3546 313.86 74.7946 313.58 76.3412 313.58C78.7146 313.58 80.4346 314.313 81.5013 315.78C82.5679 317.22 83.1013 319.153 83.1013 321.58V333.5H80.3813L80.1013 331.18H79.9813C79.0746 331.927 78.0746 332.58 76.9813 333.14C75.9146 333.7 74.7679 333.98 73.5413 333.98ZM74.5013 331.34C75.4346 331.34 76.3146 331.113 77.1413 330.66C77.9679 330.207 78.8479 329.567 79.7813 328.74V323.34C76.5546 323.74 74.2879 324.34 72.9813 325.14C71.7013 325.94 71.0612 326.967 71.0612 328.22C71.0612 329.313 71.3946 330.113 72.0613 330.62C72.7279 331.1 73.5413 331.34 74.5013 331.34ZM89.2175 333.5V314.06H91.9375L92.2175 316.86H92.3375C93.2708 315.927 94.2575 315.153 95.2975 314.54C96.3375 313.9 97.5242 313.58 98.8575 313.58C100.911 313.58 102.404 314.233 103.338 315.54C104.298 316.82 104.778 318.7 104.778 321.18V333.5H101.498V321.62C101.498 319.807 101.204 318.487 100.618 317.66C100.031 316.833 99.0975 316.42 97.8175 316.42C96.8308 316.42 95.9375 316.673 95.1375 317.18C94.3642 317.687 93.4842 318.433 92.4975 319.42V333.5H89.2175ZM117.653 342.46C115.279 342.46 113.346 342.007 111.853 341.1C110.359 340.193 109.613 338.9 109.613 337.22C109.613 336.393 109.866 335.593 110.373 334.82C110.879 334.073 111.573 333.407 112.453 332.82V332.66C111.973 332.367 111.559 331.953 111.213 331.42C110.893 330.887 110.733 330.247 110.733 329.5C110.733 328.673 110.959 327.953 111.413 327.34C111.866 326.727 112.346 326.247 112.853 325.9V325.74C112.213 325.207 111.626 324.487 111.093 323.58C110.586 322.673 110.333 321.647 110.333 320.5C110.333 319.087 110.666 317.86 111.333 316.82C111.999 315.78 112.893 314.98 114.013 314.42C115.133 313.86 116.346 313.58 117.653 313.58C118.186 313.58 118.693 313.633 119.173 313.74C119.653 313.82 120.066 313.927 120.413 314.06H127.173V316.58H123.173C123.626 317.007 123.999 317.58 124.293 318.3C124.613 318.993 124.773 319.753 124.773 320.58C124.773 321.967 124.453 323.167 123.813 324.18C123.173 325.193 122.319 325.98 121.253 326.54C120.186 327.073 118.986 327.34 117.653 327.34C116.613 327.34 115.639 327.113 114.733 326.66C114.386 326.953 114.093 327.287 113.853 327.66C113.613 328.007 113.493 328.447 113.493 328.98C113.493 329.593 113.733 330.1 114.213 330.5C114.719 330.9 115.626 331.1 116.933 331.1H120.693C122.959 331.1 124.653 331.473 125.773 332.22C126.919 332.94 127.493 334.113 127.493 335.74C127.493 336.94 127.093 338.047 126.293 339.06C125.493 340.073 124.359 340.887 122.893 341.5C121.426 342.14 119.679 342.46 117.653 342.46ZM117.653 325.14C118.773 325.14 119.733 324.727 120.533 323.9C121.359 323.047 121.773 321.913 121.773 320.5C121.773 319.087 121.373 317.98 120.573 317.18C119.773 316.38 118.799 315.98 117.653 315.98C116.506 315.98 115.533 316.38 114.733 317.18C113.933 317.98 113.533 319.087 113.533 320.5C113.533 321.913 113.933 323.047 114.733 323.9C115.559 324.727 116.533 325.14 117.653 325.14ZM118.133 340.18C119.999 340.18 121.493 339.767 122.613 338.94C123.733 338.14 124.293 337.233 124.293 336.22C124.293 335.313 123.946 334.687 123.253 334.34C122.586 333.993 121.626 333.82 120.373 333.82H117.013C116.639 333.82 116.226 333.793 115.773 333.74C115.346 333.687 114.919 333.607 114.493 333.5C113.799 334.007 113.293 334.54 112.973 335.1C112.653 335.66 112.493 336.22 112.493 336.78C112.493 337.82 112.986 338.647 113.973 339.26C114.986 339.873 116.373 340.18 118.133 340.18ZM136.929 333.98C134.875 333.98 133.369 333.34 132.409 332.06C131.449 330.753 130.969 328.86 130.969 326.38V314.06H134.289V325.94C134.289 327.753 134.569 329.073 135.129 329.9C135.715 330.727 136.649 331.14 137.929 331.14C138.942 331.14 139.835 330.887 140.609 330.38C141.409 329.847 142.262 329.007 143.169 327.86V314.06H146.449V333.5H143.729L143.449 330.46H143.329C142.422 331.527 141.462 332.38 140.449 333.02C139.435 333.66 138.262 333.98 136.929 333.98ZM157.487 333.98C155.86 333.98 154.5 333.5 153.407 332.54C152.34 331.553 151.807 330.193 151.807 328.46C151.807 326.327 152.753 324.7 154.647 323.58C156.567 322.433 159.593 321.633 163.727 321.18C163.727 320.353 163.607 319.567 163.367 318.82C163.153 318.073 162.753 317.473 162.167 317.02C161.607 316.54 160.793 316.3 159.727 316.3C158.607 316.3 157.553 316.513 156.567 316.94C155.58 317.367 154.7 317.847 153.927 318.38L152.647 316.1C153.553 315.513 154.66 314.953 155.967 314.42C157.3 313.86 158.74 313.58 160.287 313.58C162.66 313.58 164.38 314.313 165.447 315.78C166.513 317.22 167.047 319.153 167.047 321.58V333.5H164.327L164.047 331.18H163.927C163.02 331.927 162.02 332.58 160.927 333.14C159.86 333.7 158.713 333.98 157.487 333.98ZM158.447 331.34C159.38 331.34 160.26 331.113 161.087 330.66C161.913 330.207 162.793 329.567 163.727 328.74V323.34C160.5 323.74 158.233 324.34 156.927 325.14C155.647 325.94 155.007 326.967 155.007 328.22C155.007 329.313 155.34 330.113 156.007 330.62C156.673 331.1 157.487 331.34 158.447 331.34ZM179.723 342.46C177.349 342.46 175.416 342.007 173.923 341.1C172.429 340.193 171.683 338.9 171.683 337.22C171.683 336.393 171.936 335.593 172.443 334.82C172.949 334.073 173.643 333.407 174.523 332.82V332.66C174.043 332.367 173.629 331.953 173.283 331.42C172.963 330.887 172.803 330.247 172.803 329.5C172.803 328.673 173.029 327.953 173.483 327.34C173.936 326.727 174.416 326.247 174.923 325.9V325.74C174.283 325.207 173.696 324.487 173.163 323.58C172.656 322.673 172.403 321.647 172.403 320.5C172.403 319.087 172.736 317.86 173.403 316.82C174.069 315.78 174.963 314.98 176.083 314.42C177.203 313.86 178.416 313.58 179.723 313.58C180.256 313.58 180.763 313.633 181.243 313.74C181.723 313.82 182.136 313.927 182.483 314.06H189.243V316.58H185.243C185.696 317.007 186.069 317.58 186.363 318.3C186.683 318.993 186.843 319.753 186.843 320.58C186.843 321.967 186.523 323.167 185.883 324.18C185.243 325.193 184.389 325.98 183.323 326.54C182.256 327.073 181.056 327.34 179.723 327.34C178.683 327.34 177.709 327.113 176.803 326.66C176.456 326.953 176.163 327.287 175.923 327.66C175.683 328.007 175.563 328.447 175.563 328.98C175.563 329.593 175.803 330.1 176.283 330.5C176.789 330.9 177.696 331.1 179.003 331.1H182.763C185.029 331.1 186.723 331.473 187.843 332.22C188.989 332.94 189.563 334.113 189.563 335.74C189.563 336.94 189.163 338.047 188.363 339.06C187.563 340.073 186.429 340.887 184.963 341.5C183.496 342.14 181.749 342.46 179.723 342.46ZM179.723 325.14C180.843 325.14 181.803 324.727 182.603 323.9C183.429 323.047 183.843 321.913 183.843 320.5C183.843 319.087 183.443 317.98 182.643 317.18C181.843 316.38 180.869 315.98 179.723 315.98C178.576 315.98 177.603 316.38 176.803 317.18C176.003 317.98 175.603 319.087 175.603 320.5C175.603 321.913 176.003 323.047 176.803 323.9C177.629 324.727 178.603 325.14 179.723 325.14ZM180.203 340.18C182.069 340.18 183.563 339.767 184.683 338.94C185.803 338.14 186.363 337.233 186.363 336.22C186.363 335.313 186.016 334.687 185.323 334.34C184.656 333.993 183.696 333.82 182.443 333.82H179.083C178.709 333.82 178.296 333.793 177.843 333.74C177.416 333.687 176.989 333.607 176.563 333.5C175.869 334.007 175.363 334.54 175.043 335.1C174.723 335.66 174.563 336.22 174.563 336.78C174.563 337.82 175.056 338.647 176.043 339.26C177.056 339.873 178.443 340.18 180.203 340.18ZM200.652 333.98C198.919 333.98 197.346 333.58 195.932 332.78C194.519 331.953 193.399 330.78 192.572 329.26C191.746 327.74 191.332 325.927 191.332 323.82C191.332 321.687 191.746 319.86 192.572 318.34C193.426 316.82 194.519 315.647 195.852 314.82C197.186 313.993 198.586 313.58 200.052 313.58C202.532 313.58 204.439 314.407 205.772 316.06C207.132 317.713 207.812 319.927 207.812 322.7C207.812 323.047 207.799 323.393 207.772 323.74C207.772 324.06 207.746 324.34 207.692 324.58H194.572C194.706 326.633 195.346 328.273 196.492 329.5C197.666 330.727 199.186 331.34 201.052 331.34C201.986 331.34 202.839 331.207 203.612 330.94C204.412 330.647 205.172 330.273 205.892 329.82L207.052 331.98C206.226 332.513 205.279 332.98 204.212 333.38C203.172 333.78 201.986 333.98 200.652 333.98ZM194.532 322.22H204.932C204.932 320.247 204.506 318.753 203.652 317.74C202.826 316.7 201.652 316.18 200.132 316.18C198.772 316.18 197.546 316.713 196.452 317.78C195.386 318.82 194.746 320.3 194.532 322.22ZM220.624 333.5V314.06H223.344L223.624 316.86H223.744C224.597 315.927 225.53 315.153 226.544 314.54C227.557 313.9 228.637 313.58 229.784 313.58C231.277 313.58 232.437 313.913 233.264 314.58C234.117 315.22 234.744 316.127 235.144 317.3C236.157 316.207 237.184 315.313 238.224 314.62C239.264 313.927 240.37 313.58 241.544 313.58C243.544 313.58 245.024 314.233 245.984 315.54C246.97 316.82 247.464 318.7 247.464 321.18V333.5H244.184V321.62C244.184 319.807 243.89 318.487 243.304 317.66C242.717 316.833 241.81 316.42 240.584 316.42C239.144 316.42 237.517 317.42 235.704 319.42V333.5H232.424V321.62C232.424 319.807 232.13 318.487 231.544 317.66C230.957 316.833 230.037 316.42 228.784 316.42C227.344 316.42 225.717 317.42 223.904 319.42V333.5H220.624ZM261.348 333.98C259.774 333.98 258.294 333.58 256.908 332.78C255.548 331.98 254.441 330.82 253.588 329.3C252.761 327.78 252.348 325.953 252.348 323.82C252.348 321.633 252.761 319.78 253.588 318.26C254.441 316.74 255.548 315.58 256.908 314.78C258.294 313.98 259.774 313.58 261.348 313.58C262.948 313.58 264.428 313.98 265.788 314.78C267.148 315.58 268.241 316.74 269.068 318.26C269.921 319.78 270.348 321.633 270.348 323.82C270.348 325.953 269.921 327.78 269.068 329.3C268.241 330.82 267.148 331.98 265.788 332.78C264.428 333.58 262.948 333.98 261.348 333.98ZM261.348 331.26C263.028 331.26 264.374 330.58 265.388 329.22C266.428 327.833 266.948 326.033 266.948 323.82C266.948 321.58 266.428 319.767 265.388 318.38C264.374 316.993 263.028 316.3 261.348 316.3C259.694 316.3 258.348 316.993 257.308 318.38C256.268 319.767 255.748 321.58 255.748 323.82C255.748 326.033 256.268 327.833 257.308 329.22C258.348 330.58 259.694 331.26 261.348 331.26ZM282.108 333.98C279.681 333.98 277.734 333.1 276.268 331.34C274.801 329.553 274.068 327.047 274.068 323.82C274.068 321.713 274.454 319.9 275.228 318.38C276.028 316.833 277.068 315.647 278.348 314.82C279.654 313.993 281.041 313.58 282.508 313.58C283.628 313.58 284.601 313.78 285.428 314.18C286.254 314.58 287.094 315.127 287.948 315.82L287.788 312.5V305.02H291.108V333.5H288.388L288.108 331.22H287.988C287.241 331.967 286.361 332.62 285.348 333.18C284.334 333.713 283.254 333.98 282.108 333.98ZM282.828 331.22C284.534 331.22 286.188 330.327 287.788 328.54V318.38C286.961 317.633 286.161 317.113 285.388 316.82C284.641 316.5 283.868 316.34 283.068 316.34C282.028 316.34 281.081 316.66 280.228 317.3C279.401 317.913 278.734 318.78 278.228 319.9C277.721 320.993 277.467 322.287 277.467 323.78C277.467 326.1 277.934 327.927 278.868 329.26C279.801 330.567 281.121 331.22 282.828 331.22ZM305.535 333.98C303.802 333.98 302.228 333.58 300.815 332.78C299.402 331.953 298.282 330.78 297.455 329.26C296.628 327.74 296.215 325.927 296.215 323.82C296.215 321.687 296.628 319.86 297.455 318.34C298.308 316.82 299.402 315.647 300.735 314.82C302.068 313.993 303.468 313.58 304.935 313.58C307.415 313.58 309.322 314.407 310.655 316.06C312.015 317.713 312.695 319.927 312.695 322.7C312.695 323.047 312.682 323.393 312.655 323.74C312.655 324.06 312.628 324.34 312.575 324.58H299.455C299.588 326.633 300.228 328.273 301.375 329.5C302.548 330.727 304.068 331.34 305.935 331.34C306.868 331.34 307.722 331.207 308.495 330.94C309.295 330.647 310.055 330.273 310.775 329.82L311.935 331.98C311.108 332.513 310.162 332.98 309.095 333.38C308.055 333.78 306.868 333.98 305.535 333.98ZM299.415 322.22H309.815C309.815 320.247 309.388 318.753 308.535 317.74C307.708 316.7 306.535 316.18 305.015 316.18C303.655 316.18 302.428 316.713 301.335 317.78C300.268 318.82 299.628 320.3 299.415 322.22ZM320.979 333.98C319.752 333.98 318.859 333.607 318.299 332.86C317.765 332.087 317.499 330.993 317.499 329.58V305.02H320.779V329.82C320.779 330.327 320.872 330.7 321.059 330.94C321.245 331.153 321.459 331.26 321.699 331.26C321.805 331.26 321.899 331.26 321.979 331.26C322.085 331.233 322.232 331.207 322.419 331.18L322.859 333.66C322.645 333.767 322.392 333.847 322.099 333.9C321.805 333.953 321.432 333.98 320.979 333.98Z"
     fill="white"
     id="path2" />
  <rect
     x="1"
     y="48"
     width="378"
     height="493"
     rx="39"
     stroke="#1E1E1E"
     stroke-width="2"
     id="rect3" />
  <rect
     x="1436"
     y="48"
     width="378"
     height="493"
     rx="39"
     fill="#0F1B29"
     id="rect4" />
  <path
     d="M1537.47 283.5V257.26H1552.59V260.06H1540.79V268.94H1550.79V271.74H1540.79V283.5H1537.47ZM1556.91 283.5V264.06H1560.19V283.5H1556.91ZM1558.59 260.06C1557.95 260.06 1557.42 259.873 1556.99 259.5C1556.59 259.1 1556.39 258.567 1556.39 257.9C1556.39 257.26 1556.59 256.74 1556.99 256.34C1557.42 255.94 1557.95 255.74 1558.59 255.74C1559.23 255.74 1559.75 255.94 1560.15 256.34C1560.58 256.74 1560.79 257.26 1560.79 257.9C1560.79 258.567 1560.58 259.1 1560.15 259.5C1559.75 259.873 1559.23 260.06 1558.59 260.06ZM1566.76 283.5V264.06H1569.48L1569.76 266.86H1569.88C1570.81 265.927 1571.8 265.153 1572.84 264.54C1573.88 263.9 1575.06 263.58 1576.4 263.58C1578.45 263.58 1579.94 264.233 1580.88 265.54C1581.84 266.82 1582.32 268.7 1582.32 271.18V283.5H1579.04V271.62C1579.04 269.807 1578.74 268.487 1578.16 267.66C1577.57 266.833 1576.64 266.42 1575.36 266.42C1574.37 266.42 1573.48 266.673 1572.68 267.18C1571.9 267.687 1571.02 268.433 1570.04 269.42V283.5H1566.76ZM1596.51 283.98C1594.78 283.98 1593.2 283.58 1591.79 282.78C1590.38 281.953 1589.26 280.78 1588.43 279.26C1587.6 277.74 1587.19 275.927 1587.19 273.82C1587.19 271.687 1587.6 269.86 1588.43 268.34C1589.28 266.82 1590.38 265.647 1591.71 264.82C1593.04 263.993 1594.44 263.58 1595.91 263.58C1598.39 263.58 1600.3 264.407 1601.63 266.06C1602.99 267.713 1603.67 269.927 1603.67 272.7C1603.67 273.047 1603.66 273.393 1603.63 273.74C1603.63 274.06 1603.6 274.34 1603.55 274.58H1590.43C1590.56 276.633 1591.2 278.273 1592.35 279.5C1593.52 280.727 1595.04 281.34 1596.91 281.34C1597.84 281.34 1598.7 281.207 1599.47 280.94C1600.27 280.647 1601.03 280.273 1601.75 279.82L1602.91 281.98C1602.08 282.513 1601.14 282.98 1600.07 283.38C1599.03 283.78 1597.84 283.98 1596.51 283.98ZM1590.39 272.22H1600.79C1600.79 270.247 1600.36 268.753 1599.51 267.74C1598.68 266.7 1597.51 266.18 1595.99 266.18C1594.63 266.18 1593.4 266.713 1592.31 267.78C1591.24 268.82 1590.6 270.3 1590.39 272.22ZM1607.23 274.74V272.22H1616.43V274.74H1607.23ZM1626.35 283.98C1624.27 283.98 1622.82 283.38 1621.99 282.18C1621.19 280.98 1620.79 279.42 1620.79 277.5V266.74H1617.91V264.26L1620.95 264.06L1621.35 258.62H1624.11V264.06H1629.35V266.74H1624.11V277.54C1624.11 278.74 1624.33 279.673 1624.75 280.34C1625.21 280.98 1625.99 281.3 1627.11 281.3C1627.46 281.3 1627.83 281.247 1628.23 281.14C1628.63 281.007 1628.99 280.887 1629.31 280.78L1629.95 283.26C1629.42 283.447 1628.83 283.607 1628.19 283.74C1627.58 283.9 1626.97 283.98 1626.35 283.98ZM1639.43 283.98C1637.38 283.98 1635.87 283.34 1634.91 282.06C1633.95 280.753 1633.47 278.86 1633.47 276.38V264.06H1636.79V275.94C1636.79 277.753 1637.07 279.073 1637.63 279.9C1638.22 280.727 1639.15 281.14 1640.43 281.14C1641.44 281.14 1642.34 280.887 1643.11 280.38C1643.91 279.847 1644.76 279.007 1645.67 277.86V264.06H1648.95V283.5H1646.23L1645.95 280.46H1645.83C1644.92 281.527 1643.96 282.38 1642.95 283.02C1641.94 283.66 1640.76 283.98 1639.43 283.98ZM1655.51 283.5V264.06H1658.23L1658.51 266.86H1658.63C1659.56 265.927 1660.55 265.153 1661.59 264.54C1662.63 263.9 1663.81 263.58 1665.15 263.58C1667.2 263.58 1668.69 264.233 1669.63 265.54C1670.59 266.82 1671.07 268.7 1671.07 271.18V283.5H1667.79V271.62C1667.79 269.807 1667.49 268.487 1666.91 267.66C1666.32 266.833 1665.39 266.42 1664.11 266.42C1663.12 266.42 1662.23 266.673 1661.43 267.18C1660.65 267.687 1659.77 268.433 1658.79 269.42V283.5H1655.51ZM1685.26 283.98C1683.53 283.98 1681.95 283.58 1680.54 282.78C1679.13 281.953 1678.01 280.78 1677.18 279.26C1676.35 277.74 1675.94 275.927 1675.94 273.82C1675.94 271.687 1676.35 269.86 1677.18 268.34C1678.03 266.82 1679.13 265.647 1680.46 264.82C1681.79 263.993 1683.19 263.58 1684.66 263.58C1687.14 263.58 1689.05 264.407 1690.38 266.06C1691.74 267.713 1692.42 269.927 1692.42 272.7C1692.42 273.047 1692.41 273.393 1692.38 273.74C1692.38 274.06 1692.35 274.34 1692.3 274.58H1679.18C1679.31 276.633 1679.95 278.273 1681.1 279.5C1682.27 280.727 1683.79 281.34 1685.66 281.34C1686.59 281.34 1687.45 281.207 1688.22 280.94C1689.02 280.647 1689.78 280.273 1690.5 279.82L1691.66 281.98C1690.83 282.513 1689.89 282.98 1688.82 283.38C1687.78 283.78 1686.59 283.98 1685.26 283.98ZM1679.14 272.22H1689.54C1689.54 270.247 1689.11 268.753 1688.26 267.74C1687.43 266.7 1686.26 266.18 1684.74 266.18C1683.38 266.18 1682.15 266.713 1681.06 267.78C1679.99 268.82 1679.35 270.3 1679.14 272.22ZM1703.87 283.98C1701.44 283.98 1699.49 283.1 1698.03 281.34C1696.56 279.553 1695.83 277.047 1695.83 273.82C1695.83 271.713 1696.21 269.9 1696.99 268.38C1697.79 266.833 1698.83 265.647 1700.11 264.82C1701.41 263.993 1702.8 263.58 1704.27 263.58C1705.39 263.58 1706.36 263.78 1707.19 264.18C1708.01 264.58 1708.85 265.127 1709.71 265.82L1709.55 262.5V255.02H1712.87V283.5H1710.15L1709.87 281.22H1709.75C1709 281.967 1708.12 282.62 1707.11 283.18C1706.09 283.713 1705.01 283.98 1703.87 283.98ZM1704.59 281.22C1706.29 281.22 1707.95 280.327 1709.55 278.54V268.38C1708.72 267.633 1707.92 267.113 1707.15 266.82C1706.4 266.5 1705.63 266.34 1704.83 266.34C1703.79 266.34 1702.84 266.66 1701.99 267.3C1701.16 267.913 1700.49 268.78 1699.99 269.9C1699.48 270.993 1699.23 272.287 1699.23 273.78C1699.23 276.1 1699.69 277.927 1700.63 279.26C1701.56 280.567 1702.88 281.22 1704.59 281.22ZM1497.35 333.98C1496.12 333.98 1495.23 333.607 1494.67 332.86C1494.13 332.087 1493.87 330.993 1493.87 329.58V305.02H1497.15V329.82C1497.15 330.327 1497.24 330.7 1497.43 330.94C1497.61 331.153 1497.83 331.26 1498.07 331.26C1498.17 331.26 1498.27 331.26 1498.35 331.26C1498.45 331.233 1498.6 331.207 1498.79 331.18L1499.23 333.66C1499.01 333.767 1498.76 333.847 1498.47 333.9C1498.17 333.953 1497.8 333.98 1497.35 333.98ZM1508.54 333.98C1506.91 333.98 1505.55 333.5 1504.46 332.54C1503.39 331.553 1502.86 330.193 1502.86 328.46C1502.86 326.327 1503.81 324.7 1505.7 323.58C1507.62 322.433 1510.65 321.633 1514.78 321.18C1514.78 320.353 1514.66 319.567 1514.42 318.82C1514.21 318.073 1513.81 317.473 1513.22 317.02C1512.66 316.54 1511.85 316.3 1510.78 316.3C1509.66 316.3 1508.61 316.513 1507.62 316.94C1506.63 317.367 1505.75 317.847 1504.98 318.38L1503.7 316.1C1504.61 315.513 1505.71 314.953 1507.02 314.42C1508.35 313.86 1509.79 313.58 1511.34 313.58C1513.71 313.58 1515.43 314.313 1516.5 315.78C1517.57 317.22 1518.1 319.153 1518.1 321.58V333.5H1515.38L1515.1 331.18H1514.98C1514.07 331.927 1513.07 332.58 1511.98 333.14C1510.91 333.7 1509.77 333.98 1508.54 333.98ZM1509.5 331.34C1510.43 331.34 1511.31 331.113 1512.14 330.66C1512.97 330.207 1513.85 329.567 1514.78 328.74V323.34C1511.55 323.74 1509.29 324.34 1507.98 325.14C1506.7 325.94 1506.06 326.967 1506.06 328.22C1506.06 329.313 1506.39 330.113 1507.06 330.62C1507.73 331.1 1508.54 331.34 1509.5 331.34ZM1524.22 333.5V314.06H1526.94L1527.22 316.86H1527.34C1528.27 315.927 1529.26 315.153 1530.3 314.54C1531.34 313.9 1532.52 313.58 1533.86 313.58C1535.91 313.58 1537.4 314.233 1538.34 315.54C1539.3 316.82 1539.78 318.7 1539.78 321.18V333.5H1536.5V321.62C1536.5 319.807 1536.2 318.487 1535.62 317.66C1535.03 316.833 1534.1 316.42 1532.82 316.42C1531.83 316.42 1530.94 316.673 1530.14 317.18C1529.36 317.687 1528.48 318.433 1527.5 319.42V333.5H1524.22ZM1552.65 342.46C1550.28 342.46 1548.35 342.007 1546.85 341.1C1545.36 340.193 1544.61 338.9 1544.61 337.22C1544.61 336.393 1544.87 335.593 1545.37 334.82C1545.88 334.073 1546.57 333.407 1547.45 332.82V332.66C1546.97 332.367 1546.56 331.953 1546.21 331.42C1545.89 330.887 1545.73 330.247 1545.73 329.5C1545.73 328.673 1545.96 327.953 1546.41 327.34C1546.87 326.727 1547.35 326.247 1547.85 325.9V325.74C1547.21 325.207 1546.63 324.487 1546.09 323.58C1545.59 322.673 1545.33 321.647 1545.33 320.5C1545.33 319.087 1545.67 317.86 1546.33 316.82C1547 315.78 1547.89 314.98 1549.01 314.42C1550.13 313.86 1551.35 313.58 1552.65 313.58C1553.19 313.58 1553.69 313.633 1554.17 313.74C1554.65 313.82 1555.07 313.927 1555.41 314.06H1562.17V316.58H1558.17C1558.63 317.007 1559 317.58 1559.29 318.3C1559.61 318.993 1559.77 319.753 1559.77 320.58C1559.77 321.967 1559.45 323.167 1558.81 324.18C1558.17 325.193 1557.32 325.98 1556.25 326.54C1555.19 327.073 1553.99 327.34 1552.65 327.34C1551.61 327.34 1550.64 327.113 1549.73 326.66C1549.39 326.953 1549.09 327.287 1548.85 327.66C1548.61 328.007 1548.49 328.447 1548.49 328.98C1548.49 329.593 1548.73 330.1 1549.21 330.5C1549.72 330.9 1550.63 331.1 1551.93 331.1H1555.69C1557.96 331.1 1559.65 331.473 1560.77 332.22C1561.92 332.94 1562.49 334.113 1562.49 335.74C1562.49 336.94 1562.09 338.047 1561.29 339.06C1560.49 340.073 1559.36 340.887 1557.89 341.5C1556.43 342.14 1554.68 342.46 1552.65 342.46ZM1552.65 325.14C1553.77 325.14 1554.73 324.727 1555.53 323.9C1556.36 323.047 1556.77 321.913 1556.77 320.5C1556.77 319.087 1556.37 317.98 1555.57 317.18C1554.77 316.38 1553.8 315.98 1552.65 315.98C1551.51 315.98 1550.53 316.38 1549.73 317.18C1548.93 317.98 1548.53 319.087 1548.53 320.5C1548.53 321.913 1548.93 323.047 1549.73 323.9C1550.56 324.727 1551.53 325.14 1552.65 325.14ZM1553.13 340.18C1555 340.18 1556.49 339.767 1557.61 338.94C1558.73 338.14 1559.29 337.233 1559.29 336.22C1559.29 335.313 1558.95 334.687 1558.25 334.34C1557.59 333.993 1556.63 333.82 1555.37 333.82H1552.01C1551.64 333.82 1551.23 333.793 1550.77 333.74C1550.35 333.687 1549.92 333.607 1549.49 333.5C1548.8 334.007 1548.29 334.54 1547.97 335.1C1547.65 335.66 1547.49 336.22 1547.49 336.78C1547.49 337.82 1547.99 338.647 1548.97 339.26C1549.99 339.873 1551.37 340.18 1553.13 340.18ZM1571.93 333.98C1569.88 333.98 1568.37 333.34 1567.41 332.06C1566.45 330.753 1565.97 328.86 1565.97 326.38V314.06H1569.29V325.94C1569.29 327.753 1569.57 329.073 1570.13 329.9C1570.72 330.727 1571.65 331.14 1572.93 331.14C1573.94 331.14 1574.84 330.887 1575.61 330.38C1576.41 329.847 1577.26 329.007 1578.17 327.86V314.06H1581.45V333.5H1578.73L1578.45 330.46H1578.33C1577.42 331.527 1576.46 332.38 1575.45 333.02C1574.44 333.66 1573.26 333.98 1571.93 333.98ZM1592.49 333.98C1590.86 333.98 1589.5 333.5 1588.41 332.54C1587.34 331.553 1586.81 330.193 1586.81 328.46C1586.81 326.327 1587.75 324.7 1589.65 323.58C1591.57 322.433 1594.59 321.633 1598.73 321.18C1598.73 320.353 1598.61 319.567 1598.37 318.82C1598.15 318.073 1597.75 317.473 1597.17 317.02C1596.61 316.54 1595.79 316.3 1594.73 316.3C1593.61 316.3 1592.55 316.513 1591.57 316.94C1590.58 317.367 1589.7 317.847 1588.93 318.38L1587.65 316.1C1588.55 315.513 1589.66 314.953 1590.97 314.42C1592.3 313.86 1593.74 313.58 1595.29 313.58C1597.66 313.58 1599.38 314.313 1600.45 315.78C1601.51 317.22 1602.05 319.153 1602.05 321.58V333.5H1599.33L1599.05 331.18H1598.93C1598.02 331.927 1597.02 332.58 1595.93 333.14C1594.86 333.7 1593.71 333.98 1592.49 333.98ZM1593.45 331.34C1594.38 331.34 1595.26 331.113 1596.09 330.66C1596.91 330.207 1597.79 329.567 1598.73 328.74V323.34C1595.5 323.74 1593.23 324.34 1591.93 325.14C1590.65 325.94 1590.01 326.967 1590.01 328.22C1590.01 329.313 1590.34 330.113 1591.01 330.62C1591.67 331.1 1592.49 331.34 1593.45 331.34ZM1614.72 342.46C1612.35 342.46 1610.42 342.007 1608.92 341.1C1607.43 340.193 1606.68 338.9 1606.68 337.22C1606.68 336.393 1606.94 335.593 1607.44 334.82C1607.95 334.073 1608.64 333.407 1609.52 332.82V332.66C1609.04 332.367 1608.63 331.953 1608.28 331.42C1607.96 330.887 1607.8 330.247 1607.8 329.5C1607.8 328.673 1608.03 327.953 1608.48 327.34C1608.94 326.727 1609.42 326.247 1609.92 325.9V325.74C1609.28 325.207 1608.7 324.487 1608.16 323.58C1607.66 322.673 1607.4 321.647 1607.4 320.5C1607.4 319.087 1607.74 317.86 1608.4 316.82C1609.07 315.78 1609.96 314.98 1611.08 314.42C1612.2 313.86 1613.42 313.58 1614.72 313.58C1615.26 313.58 1615.76 313.633 1616.24 313.74C1616.72 313.82 1617.14 313.927 1617.48 314.06H1624.24V316.58H1620.24C1620.7 317.007 1621.07 317.58 1621.36 318.3C1621.68 318.993 1621.84 319.753 1621.84 320.58C1621.84 321.967 1621.52 323.167 1620.88 324.18C1620.24 325.193 1619.39 325.98 1618.32 326.54C1617.26 327.073 1616.06 327.34 1614.72 327.34C1613.68 327.34 1612.71 327.113 1611.8 326.66C1611.46 326.953 1611.16 327.287 1610.92 327.66C1610.68 328.007 1610.56 328.447 1610.56 328.98C1610.56 329.593 1610.8 330.1 1611.28 330.5C1611.79 330.9 1612.7 331.1 1614 331.1H1617.76C1620.03 331.1 1621.72 331.473 1622.84 332.22C1623.99 332.94 1624.56 334.113 1624.56 335.74C1624.56 336.94 1624.16 338.047 1623.36 339.06C1622.56 340.073 1621.43 340.887 1619.96 341.5C1618.5 342.14 1616.75 342.46 1614.72 342.46ZM1614.72 325.14C1615.84 325.14 1616.8 324.727 1617.6 323.9C1618.43 323.047 1618.84 321.913 1618.84 320.5C1618.84 319.087 1618.44 317.98 1617.64 317.18C1616.84 316.38 1615.87 315.98 1614.72 315.98C1613.58 315.98 1612.6 316.38 1611.8 317.18C1611 317.98 1610.6 319.087 1610.6 320.5C1610.6 321.913 1611 323.047 1611.8 323.9C1612.63 324.727 1613.6 325.14 1614.72 325.14ZM1615.2 340.18C1617.07 340.18 1618.56 339.767 1619.68 338.94C1620.8 338.14 1621.36 337.233 1621.36 336.22C1621.36 335.313 1621.02 334.687 1620.32 334.34C1619.66 333.993 1618.7 333.82 1617.44 333.82H1614.08C1613.71 333.82 1613.3 333.793 1612.84 333.74C1612.42 333.687 1611.99 333.607 1611.56 333.5C1610.87 334.007 1610.36 334.54 1610.04 335.1C1609.72 335.66 1609.56 336.22 1609.56 336.78C1609.56 337.82 1610.06 338.647 1611.04 339.26C1612.06 339.873 1613.44 340.18 1615.2 340.18ZM1635.65 333.98C1633.92 333.98 1632.35 333.58 1630.93 332.78C1629.52 331.953 1628.4 330.78 1627.57 329.26C1626.75 327.74 1626.33 325.927 1626.33 323.82C1626.33 321.687 1626.75 319.86 1627.57 318.34C1628.43 316.82 1629.52 315.647 1630.85 314.82C1632.19 313.993 1633.59 313.58 1635.05 313.58C1637.53 313.58 1639.44 314.407 1640.77 316.06C1642.13 317.713 1642.81 319.927 1642.81 322.7C1642.81 323.047 1642.8 323.393 1642.77 323.74C1642.77 324.06 1642.75 324.34 1642.69 324.58H1629.57C1629.71 326.633 1630.35 328.273 1631.49 329.5C1632.67 330.727 1634.19 331.34 1636.05 331.34C1636.99 331.34 1637.84 331.207 1638.61 330.94C1639.41 330.647 1640.17 330.273 1640.89 329.82L1642.05 331.98C1641.23 332.513 1640.28 332.98 1639.21 333.38C1638.17 333.78 1636.99 333.98 1635.65 333.98ZM1629.53 322.22H1639.93C1639.93 320.247 1639.51 318.753 1638.65 317.74C1637.83 316.7 1636.65 316.18 1635.13 316.18C1633.77 316.18 1632.55 316.713 1631.45 317.78C1630.39 318.82 1629.75 320.3 1629.53 322.22ZM1655.62 333.5V314.06H1658.34L1658.62 316.86H1658.74C1659.6 315.927 1660.53 315.153 1661.54 314.54C1662.56 313.9 1663.64 313.58 1664.78 313.58C1666.28 313.58 1667.44 313.913 1668.26 314.58C1669.12 315.22 1669.74 316.127 1670.14 317.3C1671.16 316.207 1672.18 315.313 1673.22 314.62C1674.26 313.927 1675.37 313.58 1676.54 313.58C1678.54 313.58 1680.02 314.233 1680.98 315.54C1681.97 316.82 1682.46 318.7 1682.46 321.18V333.5H1679.18V321.62C1679.18 319.807 1678.89 318.487 1678.3 317.66C1677.72 316.833 1676.81 316.42 1675.58 316.42C1674.14 316.42 1672.52 317.42 1670.7 319.42V333.5H1667.42V321.62C1667.42 319.807 1667.13 318.487 1666.54 317.66C1665.96 316.833 1665.04 316.42 1663.78 316.42C1662.34 316.42 1660.72 317.42 1658.9 319.42V333.5H1655.62ZM1696.35 333.98C1694.77 333.98 1693.29 333.58 1691.91 332.78C1690.55 331.98 1689.44 330.82 1688.59 329.3C1687.76 327.78 1687.35 325.953 1687.35 323.82C1687.35 321.633 1687.76 319.78 1688.59 318.26C1689.44 316.74 1690.55 315.58 1691.91 314.78C1693.29 313.98 1694.77 313.58 1696.35 313.58C1697.95 313.58 1699.43 313.98 1700.79 314.78C1702.15 315.58 1703.24 316.74 1704.07 318.26C1704.92 319.78 1705.35 321.633 1705.35 323.82C1705.35 325.953 1704.92 327.78 1704.07 329.3C1703.24 330.82 1702.15 331.98 1700.79 332.78C1699.43 333.58 1697.95 333.98 1696.35 333.98ZM1696.35 331.26C1698.03 331.26 1699.37 330.58 1700.39 329.22C1701.43 327.833 1701.95 326.033 1701.95 323.82C1701.95 321.58 1701.43 319.767 1700.39 318.38C1699.37 316.993 1698.03 316.3 1696.35 316.3C1694.69 316.3 1693.35 316.993 1692.31 318.38C1691.27 319.767 1690.75 321.58 1690.75 323.82C1690.75 326.033 1691.27 327.833 1692.31 329.22C1693.35 330.58 1694.69 331.26 1696.35 331.26ZM1717.11 333.98C1714.68 333.98 1712.73 333.1 1711.27 331.34C1709.8 329.553 1709.07 327.047 1709.07 323.82C1709.07 321.713 1709.45 319.9 1710.23 318.38C1711.03 316.833 1712.07 315.647 1713.35 314.82C1714.65 313.993 1716.04 313.58 1717.51 313.58C1718.63 313.58 1719.6 313.78 1720.43 314.18C1721.25 314.58 1722.09 315.127 1722.95 315.82L1722.79 312.5V305.02H1726.11V333.5H1723.39L1723.11 331.22H1722.99C1722.24 331.967 1721.36 332.62 1720.35 333.18C1719.33 333.713 1718.25 333.98 1717.11 333.98ZM1717.83 331.22C1719.53 331.22 1721.19 330.327 1722.79 328.54V318.38C1721.96 317.633 1721.16 317.113 1720.39 316.82C1719.64 316.5 1718.87 316.34 1718.07 316.34C1717.03 316.34 1716.08 316.66 1715.23 317.3C1714.4 317.913 1713.73 318.78 1713.23 319.9C1712.72 320.993 1712.47 322.287 1712.47 323.78C1712.47 326.1 1712.93 327.927 1713.87 329.26C1714.8 330.567 1716.12 331.22 1717.83 331.22ZM1740.54 333.98C1738.8 333.98 1737.23 333.58 1735.82 332.78C1734.4 331.953 1733.28 330.78 1732.46 329.26C1731.63 327.74 1731.22 325.927 1731.22 323.82C1731.22 321.687 1731.63 319.86 1732.46 318.34C1733.31 316.82 1734.4 315.647 1735.74 314.82C1737.07 313.993 1738.47 313.58 1739.93 313.58C1742.42 313.58 1744.32 314.407 1745.66 316.06C1747.02 317.713 1747.7 319.927 1747.7 322.7C1747.7 323.047 1747.68 323.393 1747.66 323.74C1747.66 324.06 1747.63 324.34 1747.58 324.58H1734.46C1734.59 326.633 1735.23 328.273 1736.38 329.5C1737.55 330.727 1739.07 331.34 1740.94 331.34C1741.87 331.34 1742.72 331.207 1743.5 330.94C1744.3 330.647 1745.06 330.273 1745.78 329.82L1746.94 331.98C1746.11 332.513 1745.16 332.98 1744.1 333.38C1743.06 333.78 1741.87 333.98 1740.54 333.98ZM1734.42 322.22H1744.82C1744.82 320.247 1744.39 318.753 1743.54 317.74C1742.71 316.7 1741.54 316.18 1740.02 316.18C1738.66 316.18 1737.43 316.713 1736.34 317.78C1735.27 318.82 1734.63 320.3 1734.42 322.22ZM1755.98 333.98C1754.75 333.98 1753.86 333.607 1753.3 332.86C1752.77 332.087 1752.5 330.993 1752.5 329.58V305.02H1755.78V329.82C1755.78 330.327 1755.87 330.7 1756.06 330.94C1756.25 331.153 1756.46 331.26 1756.7 331.26C1756.81 331.26 1756.9 331.26 1756.98 331.26C1757.09 331.233 1757.23 331.207 1757.42 331.18L1757.86 333.66C1757.65 333.767 1757.39 333.847 1757.1 333.9C1756.81 333.953 1756.43 333.98 1755.98 333.98Z"
     fill="white"
     id="path4" />
  <rect
     x="1436"
     y="48"
     width="378"
     height="493"
     rx="39"
     stroke="#1E1E1E"
     stroke-width="2"
     id="rect5" />
  <path
     d="M1436.06 295.061C1436.65 294.475 1436.65 293.525 1436.06 292.939L1426.51 283.393C1425.93 282.808 1424.98 282.808 1424.39 283.393C1423.81 283.979 1423.81 284.929 1424.39 285.515L1432.88 294L1424.39 302.485C1423.81 303.071 1423.81 304.021 1424.39 304.607C1424.98 305.192 1425.93 305.192 1426.51 304.607L1436.06 295.061ZM380 295.5L1435 295.5L1435 292.5L380 292.5L380 295.5Z"
     fill="#B4B4B4"
     id="path5" />
  <rect
     x="763"
     y="48"
     width="288"
     height="84"
     rx="11"
     fill="#16141F"
     id="rect6" />
  <path
     d="M805.592 106.24V102.874C804.504 102.761 803.45 102.466 802.43 101.99C801.41 101.491 800.537 100.913 799.812 100.256L801.104 98.318C801.829 98.9527 802.623 99.4967 803.484 99.95C804.368 100.381 805.331 100.596 806.374 100.596C807.643 100.596 808.584 100.279 809.196 99.644C809.831 98.9867 810.148 98.1367 810.148 97.094C810.148 96.1647 809.921 95.4053 809.468 94.816C809.015 94.2267 808.425 93.7167 807.7 93.286C806.975 92.8553 806.204 92.4473 805.388 92.062C804.595 91.654 803.835 91.212 803.11 90.736C802.385 90.2373 801.795 89.6253 801.342 88.9C800.889 88.1747 800.662 87.2567 800.662 86.146C800.662 84.6273 801.115 83.3693 802.022 82.372C802.929 81.352 804.119 80.7287 805.592 80.502V77.068H807.632V80.434C808.72 80.5473 809.638 80.842 810.386 81.318C811.157 81.794 811.848 82.3607 812.46 83.018L810.964 84.684C810.329 84.072 809.706 83.596 809.094 83.256C808.505 82.916 807.745 82.746 806.816 82.746C805.773 82.746 804.946 83.0407 804.334 83.63C803.722 84.2193 803.416 85.0127 803.416 86.01C803.416 86.826 803.643 87.506 804.096 88.05C804.549 88.5713 805.139 89.0247 805.864 89.41C806.589 89.7953 807.349 90.1807 808.142 90.566C808.958 90.9513 809.729 91.4047 810.454 91.926C811.179 92.4247 811.769 93.0707 812.222 93.864C812.675 94.6573 812.902 95.666 812.902 96.89C812.902 98.4993 812.426 99.8367 811.474 100.902C810.522 101.945 809.241 102.579 807.632 102.806V106.24H805.592ZM822.492 106.24V102.874C821.404 102.761 820.35 102.466 819.33 101.99C818.31 101.491 817.438 100.913 816.712 100.256L818.004 98.318C818.73 98.9527 819.523 99.4967 820.384 99.95C821.268 100.381 822.232 100.596 823.274 100.596C824.544 100.596 825.484 100.279 826.096 99.644C826.731 98.9867 827.048 98.1367 827.048 97.094C827.048 96.1647 826.822 95.4053 826.368 94.816C825.915 94.2267 825.326 93.7167 824.6 93.286C823.875 92.8553 823.104 92.4473 822.288 92.062C821.495 91.654 820.736 91.212 820.01 90.736C819.285 90.2373 818.696 89.6253 818.242 88.9C817.789 88.1747 817.562 87.2567 817.562 86.146C817.562 84.6273 818.016 83.3693 818.922 82.372C819.829 81.352 821.019 80.7287 822.492 80.502V77.068H824.532V80.434C825.62 80.5473 826.538 80.842 827.286 81.318C828.057 81.794 828.748 82.3607 829.36 83.018L827.864 84.684C827.23 84.072 826.606 83.596 825.994 83.256C825.405 82.916 824.646 82.746 823.716 82.746C822.674 82.746 821.846 83.0407 821.234 83.63C820.622 84.2193 820.316 85.0127 820.316 86.01C820.316 86.826 820.543 87.506 820.996 88.05C821.45 88.5713 822.039 89.0247 822.764 89.41C823.49 89.7953 824.249 90.1807 825.042 90.566C825.858 90.9513 826.629 91.4047 827.354 91.926C828.08 92.4247 828.669 93.0707 829.122 93.864C829.576 94.6573 829.802 95.666 829.802 96.89C829.802 98.4993 829.326 99.8367 828.374 100.902C827.422 101.945 826.142 102.579 824.532 102.806V106.24H822.492ZM839.393 106.24V102.874C838.305 102.761 837.251 102.466 836.231 101.99C835.211 101.491 834.338 100.913 833.613 100.256L834.905 98.318C835.63 98.9527 836.423 99.4967 837.285 99.95C838.169 100.381 839.132 100.596 840.175 100.596C841.444 100.596 842.385 100.279 842.997 99.644C843.631 98.9867 843.949 98.1367 843.949 97.094C843.949 96.1647 843.722 95.4053 843.269 94.816C842.815 94.2267 842.226 93.7167 841.501 93.286C840.775 92.8553 840.005 92.4473 839.189 92.062C838.395 91.654 837.636 91.212 836.911 90.736C836.185 90.2373 835.596 89.6253 835.143 88.9C834.689 88.1747 834.463 87.2567 834.463 86.146C834.463 84.6273 834.916 83.3693 835.823 82.372C836.729 81.352 837.919 80.7287 839.393 80.502V77.068H841.433V80.434C842.521 80.5473 843.439 80.842 844.187 81.318C844.957 81.794 845.649 82.3607 846.261 83.018L844.765 84.684C844.13 84.072 843.507 83.596 842.895 83.256C842.305 82.916 841.546 82.746 840.617 82.746C839.574 82.746 838.747 83.0407 838.135 83.63C837.523 84.2193 837.217 85.0127 837.217 86.01C837.217 86.826 837.443 87.506 837.897 88.05C838.35 88.5713 838.939 89.0247 839.665 89.41C840.39 89.7953 841.149 90.1807 841.943 90.566C842.759 90.9513 843.529 91.4047 844.255 91.926C844.98 92.4247 845.569 93.0707 846.023 93.864C846.476 94.6573 846.703 95.666 846.703 96.89C846.703 98.4993 846.227 99.8367 845.275 100.902C844.323 101.945 843.042 102.579 841.433 102.806V106.24H839.393ZM858.34 102.5V85.976H861.128V102.5H858.34ZM859.768 82.576C859.224 82.576 858.77 82.4173 858.408 82.1C858.068 81.76 857.898 81.3067 857.898 80.74C857.898 80.196 858.068 79.754 858.408 79.414C858.77 79.074 859.224 78.904 859.768 78.904C860.312 78.904 860.754 79.074 861.094 79.414C861.456 79.754 861.638 80.196 861.638 80.74C861.638 81.3067 861.456 81.76 861.094 82.1C860.754 82.4173 860.312 82.576 859.768 82.576ZM866.707 102.5V85.976H869.019L869.257 88.356H869.359C870.152 87.5627 870.991 86.9053 871.875 86.384C872.759 85.84 873.768 85.568 874.901 85.568C876.646 85.568 877.916 86.1233 878.709 87.234C879.525 88.322 879.933 89.92 879.933 92.028V102.5H877.145V92.402C877.145 90.8607 876.896 89.7387 876.397 89.036C875.898 88.3333 875.105 87.982 874.017 87.982C873.178 87.982 872.419 88.1973 871.739 88.628C871.082 89.0587 870.334 89.6933 869.495 90.532V102.5H866.707ZM898.635 102.908C897.185 102.908 895.87 102.568 894.691 101.888C893.513 101.208 892.583 100.222 891.903 98.93C891.223 97.638 890.883 96.0853 890.883 94.272C890.883 92.4133 891.246 90.838 891.971 89.546C892.719 88.254 893.694 87.268 894.895 86.588C896.119 85.908 897.434 85.568 898.839 85.568C899.927 85.568 900.857 85.7607 901.627 86.146C902.421 86.5313 903.101 86.9847 903.667 87.506L902.239 89.342C901.763 88.9113 901.253 88.56 900.709 88.288C900.188 88.016 899.599 87.88 898.941 87.88C897.944 87.88 897.049 88.152 896.255 88.696C895.485 89.2173 894.873 89.9653 894.419 90.94C893.989 91.892 893.773 93.0027 893.773 94.272C893.773 96.1533 894.238 97.6833 895.167 98.862C896.119 100.018 897.355 100.596 898.873 100.596C899.644 100.596 900.358 100.437 901.015 100.12C901.673 99.78 902.251 99.3833 902.749 98.93L903.973 100.8C903.225 101.457 902.398 101.979 901.491 102.364C900.585 102.727 899.633 102.908 898.635 102.908ZM913.309 102.908C911.971 102.908 910.713 102.568 909.535 101.888C908.379 101.208 907.438 100.222 906.713 98.93C906.01 97.638 905.659 96.0853 905.659 94.272C905.659 92.4133 906.01 90.838 906.713 89.546C907.438 88.254 908.379 87.268 909.535 86.588C910.713 85.908 911.971 85.568 913.309 85.568C914.669 85.568 915.927 85.908 917.083 86.588C918.239 87.268 919.168 88.254 919.871 89.546C920.596 90.838 920.959 92.4133 920.959 94.272C920.959 96.0853 920.596 97.638 919.871 98.93C919.168 100.222 918.239 101.208 917.083 101.888C915.927 102.568 914.669 102.908 913.309 102.908ZM913.309 100.596C914.737 100.596 915.881 100.018 916.743 98.862C917.627 97.6833 918.069 96.1533 918.069 94.272C918.069 92.368 917.627 90.8267 916.743 89.648C915.881 88.4693 914.737 87.88 913.309 87.88C911.903 87.88 910.759 88.4693 909.875 89.648C908.991 90.8267 908.549 92.368 908.549 94.272C908.549 96.1533 908.991 97.6833 909.875 98.862C910.759 100.018 911.903 100.596 913.309 100.596ZM925.31 102.5V85.976H927.622L927.86 88.356H927.962C928.688 87.5627 929.481 86.9053 930.342 86.384C931.204 85.84 932.122 85.568 933.096 85.568C934.366 85.568 935.352 85.8513 936.054 86.418C936.78 86.962 937.312 87.7327 937.652 88.73C938.514 87.8007 939.386 87.0413 940.27 86.452C941.154 85.8627 942.095 85.568 943.092 85.568C944.792 85.568 946.05 86.1233 946.866 87.234C947.705 88.322 948.124 89.92 948.124 92.028V102.5H945.336V92.402C945.336 90.8607 945.087 89.7387 944.588 89.036C944.09 88.3333 943.319 87.982 942.276 87.982C941.052 87.982 939.67 88.832 938.128 90.532V102.5H935.34V92.402C935.34 90.8607 935.091 89.7387 934.592 89.036C934.094 88.3333 933.312 87.982 932.246 87.982C931.022 87.982 929.64 88.832 928.098 90.532V102.5H925.31ZM953.5 109.47V85.976H955.812L956.05 87.88H956.152C956.9 87.2453 957.716 86.7013 958.6 86.248C959.507 85.7947 960.447 85.568 961.422 85.568C963.553 85.568 965.173 86.3387 966.284 87.88C967.395 89.3987 967.95 91.4387 967.95 94C967.95 95.8587 967.61 97.4567 966.93 98.794C966.273 100.131 965.4 101.151 964.312 101.854C963.247 102.557 962.079 102.908 960.81 102.908C960.039 102.908 959.269 102.738 958.498 102.398C957.75 102.058 956.991 101.593 956.22 101.004L956.288 103.894V109.47H953.5ZM960.334 100.562C961.694 100.562 962.816 99.984 963.7 98.828C964.607 97.6493 965.06 96.04 965.06 94C965.06 92.1867 964.72 90.7247 964.04 89.614C963.383 88.4807 962.272 87.914 960.708 87.914C960.005 87.914 959.291 88.1067 958.566 88.492C957.863 88.8773 957.104 89.4327 956.288 90.158V98.828C957.036 99.4627 957.761 99.916 958.464 100.188C959.167 100.437 959.79 100.562 960.334 100.562ZM977.187 102.908C975.442 102.908 974.161 102.364 973.345 101.276C972.529 100.165 972.121 98.556 972.121 96.448V85.976H974.943V96.074C974.943 97.6153 975.181 98.7373 975.657 99.44C976.156 100.143 976.949 100.494 978.037 100.494C978.899 100.494 979.658 100.279 980.315 99.848C980.995 99.3947 981.721 98.6807 982.491 97.706V85.976H985.279V102.5H982.967L982.729 99.916H982.627C981.857 100.823 981.041 101.548 980.179 102.092C979.318 102.636 978.321 102.908 977.187 102.908ZM996.055 102.908C994.287 102.908 993.052 102.398 992.349 101.378C991.669 100.358 991.329 99.032 991.329 97.4V88.254H988.881V86.146L991.465 85.976L991.805 81.352H994.151V85.976H998.605V88.254H994.151V97.434C994.151 98.454 994.333 99.2473 994.695 99.814C995.081 100.358 995.749 100.63 996.701 100.63C996.996 100.63 997.313 100.585 997.653 100.494C997.993 100.381 998.299 100.279 998.571 100.188L999.115 102.296C998.662 102.455 998.163 102.591 997.619 102.704C997.098 102.84 996.577 102.908 996.055 102.908ZM1008.57 102.908C1007.1 102.908 1005.76 102.568 1004.56 101.888C1003.36 101.185 1002.41 100.188 1001.71 98.896C1001 97.604 1000.65 96.0627 1000.65 94.272C1000.65 92.4587 1001 90.906 1001.71 89.614C1002.43 88.322 1003.36 87.3247 1004.49 86.622C1005.63 85.9193 1006.82 85.568 1008.06 85.568C1010.17 85.568 1011.79 86.2707 1012.93 87.676C1014.08 89.0813 1014.66 90.9627 1014.66 93.32C1014.66 93.6147 1014.65 93.9093 1014.63 94.204C1014.63 94.476 1014.6 94.714 1014.56 94.918H1003.41C1003.52 96.6633 1004.06 98.0573 1005.04 99.1C1006.04 100.143 1007.33 100.664 1008.91 100.664C1009.71 100.664 1010.43 100.551 1011.09 100.324C1011.77 100.075 1012.42 99.7573 1013.03 99.372L1014.01 101.208C1013.31 101.661 1012.51 102.058 1011.6 102.398C1010.72 102.738 1009.71 102.908 1008.57 102.908ZM1003.37 92.912H1012.21C1012.21 91.2347 1011.85 89.9653 1011.12 89.104C1010.42 88.22 1009.42 87.778 1008.13 87.778C1006.98 87.778 1005.93 88.2313 1005 89.138C1004.1 90.022 1003.55 91.28 1003.37 92.912Z"
     fill="white"
     id="path6" />
  <rect
     x="763"
     y="48"
     width="288"
     height="84"
     rx="11"
     stroke="#1A1B24"
     stroke-width="2"
     id="rect7" />
  <path
     d="M905.939 284.061C906.525 284.646 907.475 284.646 908.061 284.061L917.607 274.515C918.192 273.929 918.192 272.979 917.607 272.393C917.021 271.808 916.071 271.808 915.485 272.393L907 280.879L898.515 272.393C897.929 271.808 896.979 271.808 896.393 272.393C895.808 272.979 895.808 273.929 896.393 274.515L905.939 284.061ZM905.5 137L905.5 283L908.5 283L908.5 137L905.5 137Z"
     fill="#B4B4B4"
     id="path7" />
  <rect
     x="501"
     y="419"
     width="378"
     height="122"
     rx="11"
     fill="#16141F"
     id="rect8" />
  <path
     d="M589.691 471V451.076H582.959V448.696H599.279V451.076H592.547V471H589.691ZM601.463 471V454.476H603.775L604.013 457.468H604.115C604.681 456.425 605.373 455.598 606.189 454.986C607.005 454.374 607.877 454.068 608.807 454.068C609.464 454.068 610.053 454.181 610.575 454.408L610.031 456.856C609.759 456.765 609.509 456.697 609.283 456.652C609.056 456.607 608.773 456.584 608.433 456.584C607.73 456.584 606.993 456.867 606.223 457.434C605.475 458.001 604.817 458.987 604.251 460.392V471H601.463ZM616.228 471.408C614.845 471.408 613.689 471 612.76 470.184C611.853 469.345 611.4 468.189 611.4 466.716C611.4 464.903 612.205 463.52 613.814 462.568C615.446 461.593 618.019 460.913 621.532 460.528C621.532 459.825 621.43 459.157 621.226 458.522C621.045 457.887 620.705 457.377 620.206 456.992C619.73 456.584 619.039 456.38 618.132 456.38C617.18 456.38 616.285 456.561 615.446 456.924C614.607 457.287 613.859 457.695 613.202 458.148L612.114 456.21C612.885 455.711 613.825 455.235 614.936 454.782C616.069 454.306 617.293 454.068 618.608 454.068C620.625 454.068 622.087 454.691 622.994 455.938C623.901 457.162 624.354 458.805 624.354 460.868V471H622.042L621.804 469.028H621.702C620.931 469.663 620.081 470.218 619.152 470.694C618.245 471.17 617.271 471.408 616.228 471.408ZM617.044 469.164C617.837 469.164 618.585 468.971 619.288 468.586C619.991 468.201 620.739 467.657 621.532 466.954V462.364C618.789 462.704 616.863 463.214 615.752 463.894C614.664 464.574 614.12 465.447 614.12 466.512C614.12 467.441 614.403 468.121 614.97 468.552C615.537 468.96 616.228 469.164 617.044 469.164ZM629.553 471V454.476H632.341V471H629.553ZM630.981 451.076C630.437 451.076 629.983 450.917 629.621 450.6C629.281 450.26 629.111 449.807 629.111 449.24C629.111 448.696 629.281 448.254 629.621 447.914C629.983 447.574 630.437 447.404 630.981 447.404C631.525 447.404 631.967 447.574 632.307 447.914C632.669 448.254 632.851 448.696 632.851 449.24C632.851 449.807 632.669 450.26 632.307 450.6C631.967 450.917 631.525 451.076 630.981 451.076ZM637.92 471V454.476H640.232L640.47 456.856H640.572C641.365 456.063 642.204 455.405 643.088 454.884C643.972 454.34 644.981 454.068 646.114 454.068C647.859 454.068 649.129 454.623 649.922 455.734C650.738 456.822 651.146 458.42 651.146 460.528V471H648.358V460.902C648.358 459.361 648.109 458.239 647.61 457.536C647.111 456.833 646.318 456.482 645.23 456.482C644.391 456.482 643.632 456.697 642.952 457.128C642.295 457.559 641.547 458.193 640.708 459.032V471H637.92ZM656.514 471V454.476H659.302V471H656.514ZM657.942 451.076C657.398 451.076 656.944 450.917 656.582 450.6C656.242 450.26 656.072 449.807 656.072 449.24C656.072 448.696 656.242 448.254 656.582 447.914C656.944 447.574 657.398 447.404 657.942 447.404C658.486 447.404 658.928 447.574 659.268 447.914C659.63 448.254 659.812 448.696 659.812 449.24C659.812 449.807 659.63 450.26 659.268 450.6C658.928 450.917 658.486 451.076 657.942 451.076ZM664.881 471V454.476H667.193L667.431 456.856H667.533C668.326 456.063 669.165 455.405 670.049 454.884C670.933 454.34 671.941 454.068 673.075 454.068C674.82 454.068 676.089 454.623 676.883 455.734C677.699 456.822 678.107 458.42 678.107 460.528V471H675.319V460.902C675.319 459.361 675.069 458.239 674.571 457.536C674.072 456.833 673.279 456.482 672.191 456.482C671.352 456.482 670.593 456.697 669.913 457.128C669.255 457.559 668.507 458.193 667.669 459.032V471H664.881ZM689.051 478.616C687.033 478.616 685.39 478.231 684.121 477.46C682.851 476.689 682.217 475.59 682.217 474.162C682.217 473.459 682.432 472.779 682.863 472.122C683.293 471.487 683.883 470.921 684.631 470.422V470.286C684.223 470.037 683.871 469.685 683.577 469.232C683.305 468.779 683.169 468.235 683.169 467.6C683.169 466.897 683.361 466.285 683.747 465.764C684.132 465.243 684.54 464.835 684.971 464.54V464.404C684.427 463.951 683.928 463.339 683.475 462.568C683.044 461.797 682.829 460.925 682.829 459.95C682.829 458.749 683.112 457.706 683.679 456.822C684.245 455.938 685.005 455.258 685.957 454.782C686.909 454.306 687.94 454.068 689.051 454.068C689.504 454.068 689.935 454.113 690.343 454.204C690.751 454.272 691.102 454.363 691.397 454.476H697.143V456.618H693.743C694.128 456.981 694.445 457.468 694.695 458.08C694.967 458.669 695.103 459.315 695.103 460.018C695.103 461.197 694.831 462.217 694.287 463.078C693.743 463.939 693.017 464.608 692.111 465.084C691.204 465.537 690.184 465.764 689.051 465.764C688.167 465.764 687.339 465.571 686.569 465.186C686.274 465.435 686.025 465.719 685.821 466.036C685.617 466.331 685.515 466.705 685.515 467.158C685.515 467.679 685.719 468.11 686.127 468.45C686.557 468.79 687.328 468.96 688.439 468.96H691.635C693.561 468.96 695.001 469.277 695.953 469.912C696.927 470.524 697.415 471.521 697.415 472.904C697.415 473.924 697.075 474.865 696.395 475.726C695.715 476.587 694.751 477.279 693.505 477.8C692.258 478.344 690.773 478.616 689.051 478.616ZM689.051 463.894C690.003 463.894 690.819 463.543 691.499 462.84C692.201 462.115 692.553 461.151 692.553 459.95C692.553 458.749 692.213 457.808 691.533 457.128C690.853 456.448 690.025 456.108 689.051 456.108C688.076 456.108 687.249 456.448 686.569 457.128C685.889 457.808 685.549 458.749 685.549 459.95C685.549 461.151 685.889 462.115 686.569 462.84C687.271 463.543 688.099 463.894 689.051 463.894ZM689.459 476.678C691.045 476.678 692.315 476.327 693.267 475.624C694.219 474.944 694.695 474.173 694.695 473.312C694.695 472.541 694.4 472.009 693.811 471.714C693.244 471.419 692.428 471.272 691.363 471.272H688.507C688.189 471.272 687.838 471.249 687.453 471.204C687.09 471.159 686.727 471.091 686.365 471C685.775 471.431 685.345 471.884 685.073 472.36C684.801 472.836 684.665 473.312 684.665 473.788C684.665 474.672 685.084 475.375 685.923 475.896C686.784 476.417 687.963 476.678 689.459 476.678ZM713.942 471.408C712.491 471.408 711.177 471.068 709.998 470.388C708.819 469.708 707.89 468.722 707.21 467.43C706.53 466.138 706.19 464.585 706.19 462.772C706.19 460.913 706.553 459.338 707.278 458.046C708.026 456.754 709.001 455.768 710.202 455.088C711.426 454.408 712.741 454.068 714.146 454.068C715.234 454.068 716.163 454.261 716.934 454.646C717.727 455.031 718.407 455.485 718.974 456.006L717.546 457.842C717.07 457.411 716.56 457.06 716.016 456.788C715.495 456.516 714.905 456.38 714.248 456.38C713.251 456.38 712.355 456.652 711.562 457.196C710.791 457.717 710.179 458.465 709.726 459.44C709.295 460.392 709.08 461.503 709.08 462.772C709.08 464.653 709.545 466.183 710.474 467.362C711.426 468.518 712.661 469.096 714.18 469.096C714.951 469.096 715.665 468.937 716.322 468.62C716.979 468.28 717.557 467.883 718.056 467.43L719.28 469.3C718.532 469.957 717.705 470.479 716.798 470.864C715.891 471.227 714.939 471.408 713.942 471.408ZM726.396 471.408C725.013 471.408 723.857 471 722.928 470.184C722.021 469.345 721.568 468.189 721.568 466.716C721.568 464.903 722.372 463.52 723.982 462.568C725.614 461.593 728.186 460.913 731.7 460.528C731.7 459.825 731.598 459.157 731.394 458.522C731.212 457.887 730.872 457.377 730.374 456.992C729.898 456.584 729.206 456.38 728.3 456.38C727.348 456.38 726.452 456.561 725.614 456.924C724.775 457.287 724.027 457.695 723.37 458.148L722.282 456.21C723.052 455.711 723.993 455.235 725.104 454.782C726.237 454.306 727.461 454.068 728.776 454.068C730.793 454.068 732.255 454.691 733.162 455.938C734.068 457.162 734.522 458.805 734.522 460.868V471H732.21L731.972 469.028H731.87C731.099 469.663 730.249 470.218 729.32 470.694C728.413 471.17 727.438 471.408 726.396 471.408ZM727.212 469.164C728.005 469.164 728.753 468.971 729.456 468.586C730.158 468.201 730.906 467.657 731.7 466.954V462.364C728.957 462.704 727.03 463.214 725.92 463.894C724.832 464.574 724.288 465.447 724.288 466.512C724.288 467.441 724.571 468.121 725.138 468.552C725.704 468.96 726.396 469.164 727.212 469.164ZM739.721 471V454.476H742.033L742.271 456.856H742.373C743.166 456.063 744.005 455.405 744.889 454.884C745.773 454.34 746.781 454.068 747.915 454.068C749.66 454.068 750.929 454.623 751.723 455.734C752.539 456.822 752.947 458.42 752.947 460.528V471H750.159V460.902C750.159 459.361 749.909 458.239 749.411 457.536C748.912 456.833 748.119 456.482 747.031 456.482C746.192 456.482 745.433 456.697 744.753 457.128C744.095 457.559 743.347 458.193 742.509 459.032V471H739.721ZM772.431 471.408C771.66 471.408 770.856 471.227 770.017 470.864C769.201 470.479 768.43 469.957 767.705 469.3H767.603L767.365 471H765.121V446.792H767.909V453.388L767.841 456.38C768.589 455.723 769.405 455.179 770.289 454.748C771.196 454.295 772.102 454.068 773.009 454.068C775.162 454.068 776.794 454.827 777.905 456.346C779.016 457.865 779.571 459.905 779.571 462.466C779.571 464.347 779.231 465.957 778.551 467.294C777.894 468.631 777.021 469.651 775.933 470.354C774.868 471.057 773.7 471.408 772.431 471.408ZM771.955 469.062C773.315 469.062 774.437 468.484 775.321 467.328C776.228 466.149 776.681 464.54 776.681 462.5C776.681 460.687 776.341 459.225 775.661 458.114C775.004 456.981 773.893 456.414 772.329 456.414C771.626 456.414 770.912 456.607 770.187 456.992C769.462 457.377 768.702 457.933 767.909 458.658V467.328C768.634 467.963 769.348 468.416 770.051 468.688C770.776 468.937 771.411 469.062 771.955 469.062ZM790.612 471.408C789.139 471.408 787.801 471.068 786.6 470.388C785.399 469.685 784.447 468.688 783.744 467.396C783.041 466.104 782.69 464.563 782.69 462.772C782.69 460.959 783.041 459.406 783.744 458.114C784.469 456.822 785.399 455.825 786.532 455.122C787.665 454.419 788.855 454.068 790.102 454.068C792.21 454.068 793.831 454.771 794.964 456.176C796.12 457.581 796.698 459.463 796.698 461.82C796.698 462.115 796.687 462.409 796.664 462.704C796.664 462.976 796.641 463.214 796.596 463.418H785.444C785.557 465.163 786.101 466.557 787.076 467.6C788.073 468.643 789.365 469.164 790.952 469.164C791.745 469.164 792.471 469.051 793.128 468.824C793.808 468.575 794.454 468.257 795.066 467.872L796.052 469.708C795.349 470.161 794.545 470.558 793.638 470.898C792.754 471.238 791.745 471.408 790.612 471.408ZM785.41 461.412H794.25C794.25 459.735 793.887 458.465 793.162 457.604C792.459 456.72 791.462 456.278 790.17 456.278C789.014 456.278 787.971 456.731 787.042 457.638C786.135 458.522 785.591 459.78 785.41 461.412ZM560.324 514.408C558.261 514.408 556.606 513.66 555.36 512.164C554.113 510.645 553.49 508.515 553.49 505.772C553.49 503.981 553.818 502.44 554.476 501.148C555.156 499.833 556.04 498.825 557.128 498.122C558.238 497.419 559.417 497.068 560.664 497.068C561.616 497.068 562.443 497.238 563.146 497.578C563.848 497.918 564.562 498.383 565.288 498.972L565.152 496.15V489.792H567.974V514H565.662L565.424 512.062H565.322C564.687 512.697 563.939 513.252 563.078 513.728C562.216 514.181 561.298 514.408 560.324 514.408ZM560.936 512.062C562.386 512.062 563.792 511.303 565.152 509.784V501.148C564.449 500.513 563.769 500.071 563.112 499.822C562.477 499.55 561.82 499.414 561.14 499.414C560.256 499.414 559.451 499.686 558.726 500.23C558.023 500.751 557.456 501.488 557.026 502.44C556.595 503.369 556.38 504.469 556.38 505.738C556.38 507.71 556.776 509.263 557.57 510.396C558.363 511.507 559.485 512.062 560.936 512.062ZM579.965 514.408C578.628 514.408 577.37 514.068 576.191 513.388C575.035 512.708 574.094 511.722 573.369 510.43C572.666 509.138 572.315 507.585 572.315 505.772C572.315 503.913 572.666 502.338 573.369 501.046C574.094 499.754 575.035 498.768 576.191 498.088C577.37 497.408 578.628 497.068 579.965 497.068C581.325 497.068 582.583 497.408 583.739 498.088C584.895 498.768 585.824 499.754 586.527 501.046C587.252 502.338 587.615 503.913 587.615 505.772C587.615 507.585 587.252 509.138 586.527 510.43C585.824 511.722 584.895 512.708 583.739 513.388C582.583 514.068 581.325 514.408 579.965 514.408ZM579.965 512.096C581.393 512.096 582.538 511.518 583.399 510.362C584.283 509.183 584.725 507.653 584.725 505.772C584.725 503.868 584.283 502.327 583.399 501.148C582.538 499.969 581.393 499.38 579.965 499.38C578.56 499.38 577.415 499.969 576.531 501.148C575.647 502.327 575.205 503.868 575.205 505.772C575.205 507.653 575.647 509.183 576.531 510.362C577.415 511.518 578.56 512.096 579.965 512.096ZM591.967 514V497.476H594.279L594.517 499.856H594.619C595.412 499.063 596.251 498.405 597.135 497.884C598.019 497.34 599.027 497.068 600.161 497.068C601.906 497.068 603.175 497.623 603.969 498.734C604.785 499.822 605.193 501.42 605.193 503.528V514H602.405V503.902C602.405 502.361 602.155 501.239 601.657 500.536C601.158 499.833 600.365 499.482 599.277 499.482C598.438 499.482 597.679 499.697 596.999 500.128C596.341 500.559 595.593 501.193 594.755 502.032V514H591.967ZM617.258 514.408C615.785 514.408 614.448 514.068 613.246 513.388C612.045 512.685 611.093 511.688 610.39 510.396C609.688 509.104 609.336 507.563 609.336 505.772C609.336 503.959 609.688 502.406 610.39 501.114C611.116 499.822 612.045 498.825 613.178 498.122C614.312 497.419 615.502 497.068 616.748 497.068C618.856 497.068 620.477 497.771 621.61 499.176C622.766 500.581 623.344 502.463 623.344 504.82C623.344 505.115 623.333 505.409 623.31 505.704C623.31 505.976 623.288 506.214 623.242 506.418H612.09C612.204 508.163 612.748 509.557 613.722 510.6C614.72 511.643 616.012 512.164 617.598 512.164C618.392 512.164 619.117 512.051 619.774 511.824C620.454 511.575 621.1 511.257 621.712 510.872L622.698 512.708C621.996 513.161 621.191 513.558 620.284 513.898C619.4 514.238 618.392 514.408 617.258 514.408ZM612.056 504.412H620.896C620.896 502.735 620.534 501.465 619.808 500.604C619.106 499.72 618.108 499.278 616.816 499.278C615.66 499.278 614.618 499.731 613.688 500.638C612.782 501.522 612.238 502.78 612.056 504.412ZM640.66 514.408C639.323 514.408 638.065 514.068 636.886 513.388C635.73 512.708 634.79 511.722 634.064 510.43C633.362 509.138 633.01 507.585 633.01 505.772C633.01 503.913 633.362 502.338 634.064 501.046C634.79 499.754 635.73 498.768 636.886 498.088C638.065 497.408 639.323 497.068 640.66 497.068C642.02 497.068 643.278 497.408 644.434 498.088C645.59 498.768 646.52 499.754 647.222 501.046C647.948 502.338 648.31 503.913 648.31 505.772C648.31 507.585 647.948 509.138 647.222 510.43C646.52 511.722 645.59 512.708 644.434 513.388C643.278 514.068 642.02 514.408 640.66 514.408ZM640.66 512.096C642.088 512.096 643.233 511.518 644.094 510.362C644.978 509.183 645.42 507.653 645.42 505.772C645.42 503.868 644.978 502.327 644.094 501.148C643.233 499.969 642.088 499.38 640.66 499.38C639.255 499.38 638.11 499.969 637.226 501.148C636.342 502.327 635.9 503.868 635.9 505.772C635.9 507.653 636.342 509.183 637.226 510.362C638.11 511.518 639.255 512.096 640.66 512.096ZM652.662 514V497.476H654.974L655.212 499.856H655.314C656.107 499.063 656.946 498.405 657.83 497.884C658.714 497.34 659.723 497.068 660.856 497.068C662.601 497.068 663.871 497.623 664.664 498.734C665.48 499.822 665.888 501.42 665.888 503.528V514H663.1V503.902C663.1 502.361 662.851 501.239 662.352 500.536C661.853 499.833 661.06 499.482 659.972 499.482C659.133 499.482 658.374 499.697 657.694 500.128C657.037 500.559 656.289 501.193 655.45 502.032V514H652.662ZM682.38 514.408C681.202 514.408 680.08 514.193 679.014 513.762C677.949 513.309 677.02 512.765 676.226 512.13L677.62 510.26C678.346 510.827 679.094 511.303 679.864 511.688C680.635 512.051 681.508 512.232 682.482 512.232C683.57 512.232 684.386 511.983 684.93 511.484C685.474 510.963 685.746 510.351 685.746 509.648C685.746 509.081 685.554 508.605 685.168 508.22C684.806 507.835 684.33 507.517 683.74 507.268C683.174 506.996 682.584 506.747 681.972 506.52C681.202 506.225 680.442 505.897 679.694 505.534C678.946 505.149 678.334 504.661 677.858 504.072C677.382 503.46 677.144 502.689 677.144 501.76C677.144 500.423 677.643 499.312 678.64 498.428C679.66 497.521 681.066 497.068 682.856 497.068C683.876 497.068 684.828 497.249 685.712 497.612C686.596 497.975 687.356 498.417 687.99 498.938L686.63 500.706C686.064 500.275 685.474 499.924 684.862 499.652C684.25 499.38 683.582 499.244 682.856 499.244C681.814 499.244 681.043 499.482 680.544 499.958C680.068 500.434 679.83 500.989 679.83 501.624C679.83 502.145 680 502.576 680.34 502.916C680.68 503.233 681.122 503.517 681.666 503.766C682.21 503.993 682.788 504.231 683.4 504.48C684.194 504.775 684.976 505.115 685.746 505.5C686.517 505.863 687.152 506.361 687.65 506.996C688.172 507.608 688.432 508.435 688.432 509.478C688.432 510.362 688.194 511.178 687.718 511.926C687.265 512.674 686.585 513.275 685.678 513.728C684.794 514.181 683.695 514.408 682.38 514.408ZM692.307 514V497.476H695.095V514H692.307ZM693.735 494.076C693.191 494.076 692.737 493.917 692.375 493.6C692.035 493.26 691.865 492.807 691.865 492.24C691.865 491.696 692.035 491.254 692.375 490.914C692.737 490.574 693.191 490.404 693.735 490.404C694.279 490.404 694.721 490.574 695.061 490.914C695.423 491.254 695.605 491.696 695.605 492.24C695.605 492.807 695.423 493.26 695.061 493.6C694.721 493.917 694.279 494.076 693.735 494.076ZM700.674 514V497.476H702.986L703.224 499.856H703.326C704.119 499.063 704.958 498.405 705.842 497.884C706.726 497.34 707.734 497.068 708.868 497.068C710.613 497.068 711.882 497.623 712.676 498.734C713.492 499.822 713.9 501.42 713.9 503.528V514H711.112V503.902C711.112 502.361 710.862 501.239 710.364 500.536C709.865 499.833 709.072 499.482 707.984 499.482C707.145 499.482 706.386 499.697 705.706 500.128C705.048 500.559 704.3 501.193 703.462 502.032V514H700.674ZM724.843 521.616C722.826 521.616 721.183 521.231 719.913 520.46C718.644 519.689 718.009 518.59 718.009 517.162C718.009 516.459 718.225 515.779 718.655 515.122C719.086 514.487 719.675 513.921 720.423 513.422V513.286C720.015 513.037 719.664 512.685 719.369 512.232C719.097 511.779 718.961 511.235 718.961 510.6C718.961 509.897 719.154 509.285 719.539 508.764C719.925 508.243 720.333 507.835 720.763 507.54V507.404C720.219 506.951 719.721 506.339 719.267 505.568C718.837 504.797 718.621 503.925 718.621 502.95C718.621 501.749 718.905 500.706 719.471 499.822C720.038 498.938 720.797 498.258 721.749 497.782C722.701 497.306 723.733 497.068 724.843 497.068C725.297 497.068 725.727 497.113 726.135 497.204C726.543 497.272 726.895 497.363 727.189 497.476H732.935V499.618H729.535C729.921 499.981 730.238 500.468 730.487 501.08C730.759 501.669 730.895 502.315 730.895 503.018C730.895 504.197 730.623 505.217 730.079 506.078C729.535 506.939 728.81 507.608 727.903 508.084C726.997 508.537 725.977 508.764 724.843 508.764C723.959 508.764 723.132 508.571 722.361 508.186C722.067 508.435 721.817 508.719 721.613 509.036C721.409 509.331 721.307 509.705 721.307 510.158C721.307 510.679 721.511 511.11 721.919 511.45C722.35 511.79 723.121 511.96 724.231 511.96H727.427C729.354 511.96 730.793 512.277 731.745 512.912C732.72 513.524 733.207 514.521 733.207 515.904C733.207 516.924 732.867 517.865 732.187 518.726C731.507 519.587 730.544 520.279 729.297 520.8C728.051 521.344 726.566 521.616 724.843 521.616ZM724.843 506.894C725.795 506.894 726.611 506.543 727.291 505.84C727.994 505.115 728.345 504.151 728.345 502.95C728.345 501.749 728.005 500.808 727.325 500.128C726.645 499.448 725.818 499.108 724.843 499.108C723.869 499.108 723.041 499.448 722.361 500.128C721.681 500.808 721.341 501.749 721.341 502.95C721.341 504.151 721.681 505.115 722.361 505.84C723.064 506.543 723.891 506.894 724.843 506.894ZM725.251 519.678C726.838 519.678 728.107 519.327 729.059 518.624C730.011 517.944 730.487 517.173 730.487 516.312C730.487 515.541 730.193 515.009 729.603 514.714C729.037 514.419 728.221 514.272 727.155 514.272H724.299C723.982 514.272 723.631 514.249 723.245 514.204C722.883 514.159 722.52 514.091 722.157 514C721.568 514.431 721.137 514.884 720.865 515.36C720.593 515.836 720.457 516.312 720.457 516.788C720.457 517.672 720.877 518.375 721.715 518.896C722.577 519.417 723.755 519.678 725.251 519.678ZM739.358 514.408C738.316 514.408 737.556 514.091 737.08 513.456C736.627 512.799 736.4 511.869 736.4 510.668V489.792H739.188V510.872C739.188 511.303 739.268 511.62 739.426 511.824C739.585 512.005 739.766 512.096 739.97 512.096C740.061 512.096 740.14 512.096 740.208 512.096C740.299 512.073 740.424 512.051 740.582 512.028L740.956 514.136C740.775 514.227 740.56 514.295 740.31 514.34C740.061 514.385 739.744 514.408 739.358 514.408ZM751.764 514.408C750.291 514.408 748.954 514.068 747.752 513.388C746.551 512.685 745.599 511.688 744.896 510.396C744.194 509.104 743.842 507.563 743.842 505.772C743.842 503.959 744.194 502.406 744.896 501.114C745.622 499.822 746.551 498.825 747.684 498.122C748.818 497.419 750.008 497.068 751.254 497.068C753.362 497.068 754.983 497.771 756.116 499.176C757.272 500.581 757.85 502.463 757.85 504.82C757.85 505.115 757.839 505.409 757.816 505.704C757.816 505.976 757.794 506.214 757.748 506.418H746.596C746.71 508.163 747.254 509.557 748.228 510.6C749.226 511.643 750.518 512.164 752.104 512.164C752.898 512.164 753.623 512.051 754.28 511.824C754.96 511.575 755.606 511.257 756.218 510.872L757.204 512.708C756.502 513.161 755.697 513.558 754.79 513.898C753.906 514.238 752.898 514.408 751.764 514.408ZM746.562 504.412H755.402C755.402 502.735 755.04 501.465 754.314 500.604C753.612 499.72 752.614 499.278 751.322 499.278C750.166 499.278 749.124 499.731 748.194 500.638C747.288 501.522 746.744 502.78 746.562 504.412ZM777.784 514.408C775.835 514.408 774.101 513.955 772.582 513.048C771.063 512.119 769.873 510.793 769.012 509.07C768.151 507.347 767.72 505.273 767.72 502.848C767.72 500.445 768.162 498.383 769.046 496.66C769.93 494.937 771.143 493.611 772.684 492.682C774.225 491.753 775.982 491.288 777.954 491.288C779.495 491.288 780.787 491.583 781.83 492.172C782.895 492.739 783.745 493.362 784.38 494.042L782.816 495.878C782.249 495.289 781.592 494.79 780.844 494.382C780.096 493.974 779.155 493.77 778.022 493.77C776.526 493.77 775.223 494.144 774.112 494.892C773.001 495.617 772.14 496.649 771.528 497.986C770.939 499.323 770.644 500.921 770.644 502.78C770.644 505.591 771.279 507.823 772.548 509.478C773.84 511.11 775.676 511.926 778.056 511.926C778.849 511.926 779.609 511.813 780.334 511.586C781.059 511.337 781.637 511.008 782.068 510.6V504.786H777.342V502.44H784.652V511.824C783.949 512.572 782.997 513.195 781.796 513.694C780.617 514.17 779.28 514.408 777.784 514.408ZM789.997 514V491.696H796.355C798.032 491.696 799.494 491.9 800.741 492.308C801.987 492.716 802.962 493.407 803.665 494.382C804.367 495.334 804.719 496.626 804.719 498.258C804.719 500.593 803.959 502.327 802.441 503.46C800.922 504.593 798.939 505.16 796.491 505.16H792.819V514H789.997ZM792.819 502.848H796.151C798.1 502.848 799.539 502.485 800.469 501.76C801.421 501.012 801.897 499.845 801.897 498.258C801.897 496.649 801.398 495.538 800.401 494.926C799.426 494.291 797.964 493.974 796.015 493.974H792.819V502.848ZM817.176 514.408C815.658 514.408 814.286 514.102 813.062 513.49C811.861 512.878 810.909 511.869 810.206 510.464C809.504 509.059 809.152 507.166 809.152 504.786V491.696H811.974V504.854C811.974 506.645 812.201 508.061 812.654 509.104C813.13 510.124 813.754 510.849 814.524 511.28C815.318 511.711 816.202 511.926 817.176 511.926C818.174 511.926 819.069 511.711 819.862 511.28C820.656 510.849 821.279 510.124 821.732 509.104C822.208 508.061 822.446 506.645 822.446 504.854V491.696H825.166V504.786C825.166 507.166 824.815 509.059 824.112 510.464C823.41 511.869 822.458 512.878 821.256 513.49C820.055 514.102 818.695 514.408 817.176 514.408Z"
     fill="white"
     id="path8" />
  <rect
     x="501"
     y="419"
     width="378"
     height="122"
     rx="11"
     stroke="#1A1B24"
     stroke-width="2"
     id="rect9" />
  <rect
     x="935"
     y="419"
     width="378"
     height="122"
     rx="11"
     fill="#16141F"
     id="rect10" />
  <rect
     x="935"
     y="419"
     width="378"
     height="122"
     rx="11"
     stroke="#1A1B24"
     stroke-width="2"
     id="rect11" />
  <path
     d="M691.061 303.939C690.475 303.354 689.525 303.354 688.939 303.939L679.393 313.485C678.808 314.071 678.808 315.021 679.393 315.607C679.979 316.192 680.929 316.192 681.515 315.607L690 307.121L698.485 315.607C699.071 316.192 700.021 316.192 700.607 315.607C701.192 315.021 701.192 314.071 700.607 313.485L691.061 303.939ZM691.5 404L691.5 305L688.5 305L688.5 404L691.5 404Z"
     fill="#B4B4B4"
     id="path11" />
  <path
     d="M1125.06 303.939C1124.47 303.354 1123.53 303.354 1122.94 303.939L1113.39 313.485C1112.81 314.071 1112.81 315.021 1113.39 315.607C1113.98 316.192 1114.93 316.192 1115.51 315.607L1124 307.121L1132.49 315.607C1133.07 316.192 1134.02 316.192 1134.61 315.607C1135.19 315.021 1135.19 314.071 1134.61 313.485L1125.06 303.939ZM1125.5 404L1125.5 305L1122.5 305L1122.5 404L1125.5 404Z"
     fill="#B4B4B4"
     id="path12" />
  <text
     xml:space="preserve"
     style="font-size:28px;line-height:31.85;text-align:center;writing-mode:lr-tb;direction:ltr;text-anchor:middle;fill:#ffffff;fill-opacity:1"
     x="986.46533"
     y="491.25974"
     id="text12"><tspan
       sodipodi:role="line"
       id="tspan12"
       x="986.46533"
       y="491.25974" /></text>
  <text
     xml:space="preserve"
     style="font-size:29.3333px;line-height:31.85;text-align:center;writing-mode:lr-tb;direction:ltr;text-anchor:middle;fill:#ffffff;fill-opacity:1"
     x="1124.5704"
     y="495.2056"
     id="text13"><tspan
       sodipodi:role="line"
       id="tspan13"
       x="1124.5704"
       y="495.2056"
       style="font-family:sans-serif;font-size:33.3333px;text-align:center;font-weight:300;text-anchor:middle">Easily Reproducible</tspan></text>
</svg>
